<mxfile host="app.diagrams.net" modified="2024-03-25T05:36:18.385Z" agent="Mozilla/5.0 (Windows NT 10.0; Win64; x64) AppleWebKit/537.36 (KHTML, like Gecko) Chrome/123.0.0.0 Safari/537.36" etag="8URQ8ASjTj0FW4svvYM6" version="24.1.0" type="google">
  <diagram id="R2lEEEUBdFMjLlhIrx00" name="Page-1">
    <mxGraphModel dx="2100" dy="1306" grid="1" gridSize="13" guides="1" tooltips="1" connect="1" arrows="1" fold="1" page="1" pageScale="1" pageWidth="1200" pageHeight="1920" math="0" shadow="0" extFonts="Permanent Marker^https://fonts.googleapis.com/css?family=Permanent+Marker">
      <root>
        <mxCell id="0" />
        <mxCell id="1" parent="0" />
        <mxCell id="UmN1ryKaJYNSOMEjlBWB-10" value="&lt;u&gt;P-ID&lt;/u&gt;" style="ellipse;whiteSpace=wrap;html=1;align=center;" parent="1" vertex="1">
          <mxGeometry x="375" y="30" width="100" height="50" as="geometry" />
        </mxCell>
        <mxCell id="UmN1ryKaJYNSOMEjlBWB-13" value="HealthCare_Professional" style="whiteSpace=wrap;html=1;align=center;" parent="1" vertex="1">
          <mxGeometry x="644" y="484" width="180" height="40" as="geometry" />
        </mxCell>
        <mxCell id="UmN1ryKaJYNSOMEjlBWB-14" value="Patient" style="whiteSpace=wrap;html=1;align=center;" parent="1" vertex="1">
          <mxGeometry x="1110" y="480" width="100" height="40" as="geometry" />
        </mxCell>
        <mxCell id="UmN1ryKaJYNSOMEjlBWB-15" value="Person" style="whiteSpace=wrap;html=1;align=center;" parent="1" vertex="1">
          <mxGeometry x="910" y="280" width="100" height="40" as="geometry" />
        </mxCell>
        <mxCell id="UmN1ryKaJYNSOMEjlBWB-17" value="P_Address" style="ellipse;whiteSpace=wrap;html=1;align=center;" parent="1" vertex="1">
          <mxGeometry x="980" y="155" width="100" height="40" as="geometry" />
        </mxCell>
        <mxCell id="UmN1ryKaJYNSOMEjlBWB-18" value="P_BDate" style="ellipse;whiteSpace=wrap;html=1;align=center;strokeColor=default;" parent="1" vertex="1">
          <mxGeometry x="260" y="40" width="100" height="50" as="geometry" />
        </mxCell>
        <mxCell id="UmN1ryKaJYNSOMEjlBWB-19" value="P_Gender" style="ellipse;whiteSpace=wrap;html=1;align=center;" parent="1" vertex="1">
          <mxGeometry x="1340" y="135" width="100" height="40" as="geometry" />
        </mxCell>
        <mxCell id="UmN1ryKaJYNSOMEjlBWB-20" value="P_Mobile_Num" style="ellipse;shape=doubleEllipse;margin=3;whiteSpace=wrap;html=1;align=center;" parent="1" vertex="1">
          <mxGeometry x="275" y="135" width="100" height="40" as="geometry" />
        </mxCell>
        <mxCell id="UmN1ryKaJYNSOMEjlBWB-21" value="P_Name&lt;span style=&quot;white-space: pre;&quot;&gt;&#x9;&lt;/span&gt;" style="ellipse;whiteSpace=wrap;html=1;align=center;" parent="1" vertex="1">
          <mxGeometry x="760" y="155" width="100" height="50" as="geometry" />
        </mxCell>
        <mxCell id="UmN1ryKaJYNSOMEjlBWB-22" value="First" style="ellipse;whiteSpace=wrap;html=1;align=center;" parent="1" vertex="1">
          <mxGeometry x="540" y="20" width="100" height="40" as="geometry" />
        </mxCell>
        <mxCell id="UmN1ryKaJYNSOMEjlBWB-23" value="Middle" style="ellipse;whiteSpace=wrap;html=1;align=center;" parent="1" vertex="1">
          <mxGeometry x="650" y="20" width="100" height="40" as="geometry" />
        </mxCell>
        <mxCell id="UmN1ryKaJYNSOMEjlBWB-24" value="Last" style="ellipse;whiteSpace=wrap;html=1;align=center;" parent="1" vertex="1">
          <mxGeometry x="760" y="20" width="100" height="40" as="geometry" />
        </mxCell>
        <mxCell id="UmN1ryKaJYNSOMEjlBWB-37" value="Street" style="ellipse;whiteSpace=wrap;html=1;align=center;" parent="1" vertex="1">
          <mxGeometry x="890" y="20" width="100" height="40" as="geometry" />
        </mxCell>
        <mxCell id="UmN1ryKaJYNSOMEjlBWB-38" value="State" style="ellipse;whiteSpace=wrap;html=1;align=center;" parent="1" vertex="1">
          <mxGeometry x="1190" y="20" width="100" height="40" as="geometry" />
        </mxCell>
        <mxCell id="UmN1ryKaJYNSOMEjlBWB-39" value="ZIP" style="ellipse;whiteSpace=wrap;html=1;align=center;" parent="1" vertex="1">
          <mxGeometry x="1320" y="20" width="100" height="40" as="geometry" />
        </mxCell>
        <mxCell id="UmN1ryKaJYNSOMEjlBWB-40" value="City" style="ellipse;whiteSpace=wrap;html=1;align=center;" parent="1" vertex="1">
          <mxGeometry x="1020" y="20" width="100" height="40" as="geometry" />
        </mxCell>
        <mxCell id="UmN1ryKaJYNSOMEjlBWB-44" value="" style="endArrow=none;html=1;rounded=0;" parent="1" source="UmN1ryKaJYNSOMEjlBWB-18" target="UmN1ryKaJYNSOMEjlBWB-15" edge="1">
          <mxGeometry relative="1" as="geometry">
            <mxPoint x="270" y="264.38" as="sourcePoint" />
            <mxPoint x="430" y="264" as="targetPoint" />
            <Array as="points" />
          </mxGeometry>
        </mxCell>
        <mxCell id="UmN1ryKaJYNSOMEjlBWB-47" value="" style="endArrow=none;html=1;rounded=0;" parent="1" source="UmN1ryKaJYNSOMEjlBWB-22" target="UmN1ryKaJYNSOMEjlBWB-21" edge="1">
          <mxGeometry relative="1" as="geometry">
            <mxPoint x="270" y="100" as="sourcePoint" />
            <mxPoint x="430" y="100" as="targetPoint" />
          </mxGeometry>
        </mxCell>
        <mxCell id="UmN1ryKaJYNSOMEjlBWB-48" value="" style="endArrow=none;html=1;rounded=0;" parent="1" source="UmN1ryKaJYNSOMEjlBWB-23" target="UmN1ryKaJYNSOMEjlBWB-21" edge="1">
          <mxGeometry relative="1" as="geometry">
            <mxPoint x="375" y="80" as="sourcePoint" />
            <mxPoint x="475" y="120" as="targetPoint" />
          </mxGeometry>
        </mxCell>
        <mxCell id="UmN1ryKaJYNSOMEjlBWB-49" value="" style="endArrow=none;html=1;rounded=0;" parent="1" source="UmN1ryKaJYNSOMEjlBWB-21" target="UmN1ryKaJYNSOMEjlBWB-24" edge="1">
          <mxGeometry relative="1" as="geometry">
            <mxPoint x="380" y="130" as="sourcePoint" />
            <mxPoint x="495" y="100" as="targetPoint" />
          </mxGeometry>
        </mxCell>
        <mxCell id="UmN1ryKaJYNSOMEjlBWB-50" value="" style="endArrow=none;html=1;rounded=0;" parent="1" source="UmN1ryKaJYNSOMEjlBWB-21" target="UmN1ryKaJYNSOMEjlBWB-15" edge="1">
          <mxGeometry relative="1" as="geometry">
            <mxPoint x="373" y="180" as="sourcePoint" />
            <mxPoint x="420" y="290" as="targetPoint" />
          </mxGeometry>
        </mxCell>
        <mxCell id="UmN1ryKaJYNSOMEjlBWB-51" value="" style="endArrow=none;html=1;rounded=0;" parent="1" source="UmN1ryKaJYNSOMEjlBWB-10" target="UmN1ryKaJYNSOMEjlBWB-15" edge="1">
          <mxGeometry relative="1" as="geometry">
            <mxPoint x="240" y="180" as="sourcePoint" />
            <mxPoint x="430" y="250" as="targetPoint" />
          </mxGeometry>
        </mxCell>
        <mxCell id="UmN1ryKaJYNSOMEjlBWB-52" value="" style="endArrow=none;html=1;rounded=0;exitX=0.5;exitY=1;exitDx=0;exitDy=0;entryX=0.5;entryY=0;entryDx=0;entryDy=0;" parent="1" source="UmN1ryKaJYNSOMEjlBWB-37" target="UmN1ryKaJYNSOMEjlBWB-17" edge="1">
          <mxGeometry relative="1" as="geometry">
            <mxPoint x="383" y="190" as="sourcePoint" />
            <mxPoint x="430" y="300" as="targetPoint" />
          </mxGeometry>
        </mxCell>
        <mxCell id="UmN1ryKaJYNSOMEjlBWB-53" value="" style="endArrow=none;html=1;rounded=0;" parent="1" source="UmN1ryKaJYNSOMEjlBWB-17" target="UmN1ryKaJYNSOMEjlBWB-38" edge="1">
          <mxGeometry relative="1" as="geometry">
            <mxPoint x="740" y="180" as="sourcePoint" />
            <mxPoint x="840" y="210" as="targetPoint" />
          </mxGeometry>
        </mxCell>
        <mxCell id="UmN1ryKaJYNSOMEjlBWB-55" value="" style="endArrow=none;html=1;rounded=0;exitX=0.5;exitY=1;exitDx=0;exitDy=0;entryX=0.5;entryY=0;entryDx=0;entryDy=0;" parent="1" source="UmN1ryKaJYNSOMEjlBWB-40" target="UmN1ryKaJYNSOMEjlBWB-17" edge="1">
          <mxGeometry relative="1" as="geometry">
            <mxPoint x="630" y="160" as="sourcePoint" />
            <mxPoint x="730" y="190" as="targetPoint" />
          </mxGeometry>
        </mxCell>
        <mxCell id="UmN1ryKaJYNSOMEjlBWB-56" value="" style="endArrow=none;html=1;rounded=0;" parent="1" source="UmN1ryKaJYNSOMEjlBWB-15" target="UmN1ryKaJYNSOMEjlBWB-19" edge="1">
          <mxGeometry relative="1" as="geometry">
            <mxPoint x="570" y="230" as="sourcePoint" />
            <mxPoint x="670" y="260" as="targetPoint" />
          </mxGeometry>
        </mxCell>
        <mxCell id="UmN1ryKaJYNSOMEjlBWB-57" value="" style="endArrow=none;html=1;rounded=0;" parent="1" source="UmN1ryKaJYNSOMEjlBWB-15" target="UmN1ryKaJYNSOMEjlBWB-17" edge="1">
          <mxGeometry relative="1" as="geometry">
            <mxPoint x="420" y="290" as="sourcePoint" />
            <mxPoint x="700" y="200" as="targetPoint" />
          </mxGeometry>
        </mxCell>
        <mxCell id="UmN1ryKaJYNSOMEjlBWB-60" value="" style="endArrow=none;html=1;rounded=0;" parent="1" source="UmN1ryKaJYNSOMEjlBWB-17" target="UmN1ryKaJYNSOMEjlBWB-39" edge="1">
          <mxGeometry relative="1" as="geometry">
            <mxPoint x="635" y="168" as="sourcePoint" />
            <mxPoint x="775" y="67" as="targetPoint" />
          </mxGeometry>
        </mxCell>
        <mxCell id="UmN1ryKaJYNSOMEjlBWB-62" value="" style="ellipse;whiteSpace=wrap;html=1;aspect=fixed;" parent="1" vertex="1">
          <mxGeometry x="935" y="350" width="50" height="50" as="geometry" />
        </mxCell>
        <mxCell id="UmN1ryKaJYNSOMEjlBWB-69" value="" style="endArrow=none;html=1;rounded=0;" parent="1" source="UmN1ryKaJYNSOMEjlBWB-13" target="UmN1ryKaJYNSOMEjlBWB-62" edge="1">
          <mxGeometry width="50" height="50" relative="1" as="geometry">
            <mxPoint x="470" y="310" as="sourcePoint" />
            <mxPoint x="460" y="400" as="targetPoint" />
          </mxGeometry>
        </mxCell>
        <mxCell id="UmN1ryKaJYNSOMEjlBWB-72" value="" style="endArrow=none;html=1;rounded=0;" parent="1" source="UmN1ryKaJYNSOMEjlBWB-14" target="UmN1ryKaJYNSOMEjlBWB-62" edge="1">
          <mxGeometry width="50" height="50" relative="1" as="geometry">
            <mxPoint x="342" y="490" as="sourcePoint" />
            <mxPoint x="460" y="400" as="targetPoint" />
          </mxGeometry>
        </mxCell>
        <mxCell id="UmN1ryKaJYNSOMEjlBWB-77" value="" style="endArrow=none;html=1;rounded=0;" parent="1" source="UmN1ryKaJYNSOMEjlBWB-20" target="UmN1ryKaJYNSOMEjlBWB-15" edge="1">
          <mxGeometry relative="1" as="geometry">
            <mxPoint x="310.5" y="220" as="sourcePoint" />
            <mxPoint x="869.5" y="422" as="targetPoint" />
            <Array as="points" />
          </mxGeometry>
        </mxCell>
        <mxCell id="UmN1ryKaJYNSOMEjlBWB-80" value="Patient_ID" style="ellipse;whiteSpace=wrap;html=1;align=center;fontStyle=4;" parent="1" vertex="1">
          <mxGeometry x="1320" y="480" width="100" height="40" as="geometry" />
        </mxCell>
        <mxCell id="UmN1ryKaJYNSOMEjlBWB-81" value="" style="endArrow=none;html=1;rounded=0;" parent="1" source="UmN1ryKaJYNSOMEjlBWB-14" target="UmN1ryKaJYNSOMEjlBWB-80" edge="1">
          <mxGeometry relative="1" as="geometry">
            <mxPoint x="1320" y="526" as="sourcePoint" />
            <mxPoint x="1403" y="440" as="targetPoint" />
            <Array as="points">
              <mxPoint x="1260" y="500" />
            </Array>
          </mxGeometry>
        </mxCell>
        <mxCell id="UmN1ryKaJYNSOMEjlBWB-84" value="" style="endArrow=none;html=1;rounded=0;entryX=1;entryY=1;entryDx=0;entryDy=0;" parent="1" source="UmN1ryKaJYNSOMEjlBWB-13" target="qRnIFf2FwN7FLmeCjPiC-2" edge="1">
          <mxGeometry relative="1" as="geometry">
            <mxPoint x="1220" y="510" as="sourcePoint" />
            <mxPoint x="487" y="380" as="targetPoint" />
          </mxGeometry>
        </mxCell>
        <mxCell id="UmN1ryKaJYNSOMEjlBWB-85" value="Department" style="ellipse;whiteSpace=wrap;html=1;align=center;" parent="1" vertex="1">
          <mxGeometry x="370" y="430" width="100" height="40" as="geometry" />
        </mxCell>
        <mxCell id="UmN1ryKaJYNSOMEjlBWB-86" value="Specialization" style="ellipse;whiteSpace=wrap;html=1;align=center;" parent="1" vertex="1">
          <mxGeometry x="250" y="480" width="100" height="40" as="geometry" />
        </mxCell>
        <mxCell id="UmN1ryKaJYNSOMEjlBWB-87" value="HealthCare_Professional_ID" style="ellipse;whiteSpace=wrap;html=1;align=center;" parent="1" vertex="1">
          <mxGeometry x="481" y="283" width="169" height="40" as="geometry" />
        </mxCell>
        <mxCell id="UmN1ryKaJYNSOMEjlBWB-88" value="Years_of_Experience" style="ellipse;whiteSpace=wrap;html=1;align=center;" parent="1" vertex="1">
          <mxGeometry x="641" y="317" width="140" height="46" as="geometry" />
        </mxCell>
        <mxCell id="UmN1ryKaJYNSOMEjlBWB-89" value="" style="endArrow=none;html=1;rounded=0;" parent="1" source="UmN1ryKaJYNSOMEjlBWB-13" target="UmN1ryKaJYNSOMEjlBWB-88" edge="1">
          <mxGeometry relative="1" as="geometry">
            <mxPoint x="620" y="480" as="sourcePoint" />
            <mxPoint x="530" y="480" as="targetPoint" />
            <Array as="points">
              <mxPoint x="715" y="416" />
            </Array>
          </mxGeometry>
        </mxCell>
        <mxCell id="UmN1ryKaJYNSOMEjlBWB-90" value="" style="endArrow=none;html=1;rounded=0;" parent="1" source="UmN1ryKaJYNSOMEjlBWB-13" target="UmN1ryKaJYNSOMEjlBWB-85" edge="1">
          <mxGeometry relative="1" as="geometry">
            <mxPoint x="670" y="540" as="sourcePoint" />
            <mxPoint x="580" y="540" as="targetPoint" />
          </mxGeometry>
        </mxCell>
        <mxCell id="UmN1ryKaJYNSOMEjlBWB-91" value="" style="endArrow=none;html=1;rounded=0;" parent="1" source="UmN1ryKaJYNSOMEjlBWB-13" target="UmN1ryKaJYNSOMEjlBWB-86" edge="1">
          <mxGeometry relative="1" as="geometry">
            <mxPoint x="800" y="600" as="sourcePoint" />
            <mxPoint x="710" y="600" as="targetPoint" />
          </mxGeometry>
        </mxCell>
        <mxCell id="UmN1ryKaJYNSOMEjlBWB-92" value="" style="endArrow=none;html=1;rounded=0;" parent="1" source="UmN1ryKaJYNSOMEjlBWB-87" target="UmN1ryKaJYNSOMEjlBWB-13" edge="1">
          <mxGeometry relative="1" as="geometry">
            <mxPoint x="690" y="560" as="sourcePoint" />
            <mxPoint x="600" y="560" as="targetPoint" />
          </mxGeometry>
        </mxCell>
        <mxCell id="UmN1ryKaJYNSOMEjlBWB-93" value="Email_ID" style="ellipse;shape=doubleEllipse;margin=3;whiteSpace=wrap;html=1;align=center;" parent="1" vertex="1">
          <mxGeometry x="1310" y="550" width="100" height="40" as="geometry" />
        </mxCell>
        <mxCell id="UmN1ryKaJYNSOMEjlBWB-95" value="" style="endArrow=none;html=1;rounded=0;" parent="1" source="UmN1ryKaJYNSOMEjlBWB-14" target="UmN1ryKaJYNSOMEjlBWB-93" edge="1">
          <mxGeometry relative="1" as="geometry">
            <mxPoint x="1220" y="510" as="sourcePoint" />
            <mxPoint x="1330" y="510" as="targetPoint" />
            <Array as="points" />
          </mxGeometry>
        </mxCell>
        <mxCell id="UmN1ryKaJYNSOMEjlBWB-96" value="Contact_Number" style="ellipse;shape=doubleEllipse;margin=3;whiteSpace=wrap;html=1;align=center;" parent="1" vertex="1">
          <mxGeometry x="1280" y="390" width="100" height="40" as="geometry" />
        </mxCell>
        <mxCell id="UmN1ryKaJYNSOMEjlBWB-97" value="" style="endArrow=none;html=1;rounded=0;" parent="1" source="UmN1ryKaJYNSOMEjlBWB-14" target="UmN1ryKaJYNSOMEjlBWB-96" edge="1">
          <mxGeometry relative="1" as="geometry">
            <mxPoint x="1080" y="410" as="sourcePoint" />
            <mxPoint x="1190" y="410" as="targetPoint" />
            <Array as="points" />
          </mxGeometry>
        </mxCell>
        <mxCell id="UmN1ryKaJYNSOMEjlBWB-103" value="" style="endArrow=none;html=1;rounded=0;" parent="1" source="UmN1ryKaJYNSOMEjlBWB-13" target="UmN1ryKaJYNSOMEjlBWB-104" edge="1">
          <mxGeometry relative="1" as="geometry">
            <mxPoint x="748" y="550" as="sourcePoint" />
            <mxPoint x="600" y="740" as="targetPoint" />
          </mxGeometry>
        </mxCell>
        <mxCell id="UmN1ryKaJYNSOMEjlBWB-104" value="D" style="ellipse;whiteSpace=wrap;html=1;aspect=fixed;" parent="1" vertex="1">
          <mxGeometry x="574" y="533" width="40" height="40" as="geometry" />
        </mxCell>
        <mxCell id="UmN1ryKaJYNSOMEjlBWB-107" value="Administrative_Staff" style="whiteSpace=wrap;html=1;align=center;" parent="1" vertex="1">
          <mxGeometry x="4" y="610" width="166" height="40" as="geometry" />
        </mxCell>
        <mxCell id="UmN1ryKaJYNSOMEjlBWB-109" value="Nurses" style="whiteSpace=wrap;html=1;align=center;" parent="1" vertex="1">
          <mxGeometry x="650" y="611" width="100" height="40" as="geometry" />
        </mxCell>
        <mxCell id="UmN1ryKaJYNSOMEjlBWB-112" value="Technicians" style="whiteSpace=wrap;html=1;align=center;" parent="1" vertex="1">
          <mxGeometry x="488.43" y="611" width="100" height="40" as="geometry" />
        </mxCell>
        <mxCell id="UmN1ryKaJYNSOMEjlBWB-114" value="" style="ellipse;whiteSpace=wrap;html=1;aspect=fixed;" parent="1" vertex="1">
          <mxGeometry x="950" y="365" width="20" height="20" as="geometry" />
        </mxCell>
        <mxCell id="UmN1ryKaJYNSOMEjlBWB-129" value="Doctor" style="whiteSpace=wrap;html=1;align=center;" parent="1" vertex="1">
          <mxGeometry x="250" y="610" width="100" height="40" as="geometry" />
        </mxCell>
        <mxCell id="UmN1ryKaJYNSOMEjlBWB-146" value="" style="endArrow=none;html=1;rounded=0;exitX=0.5;exitY=1;exitDx=0;exitDy=0;entryX=0.5;entryY=0;entryDx=0;entryDy=0;" parent="1" source="UmN1ryKaJYNSOMEjlBWB-104" target="UmN1ryKaJYNSOMEjlBWB-112" edge="1">
          <mxGeometry relative="1" as="geometry">
            <mxPoint x="506" y="664" as="sourcePoint" />
            <mxPoint x="375" y="750" as="targetPoint" />
          </mxGeometry>
        </mxCell>
        <mxCell id="UmN1ryKaJYNSOMEjlBWB-147" value="" style="endArrow=none;html=1;rounded=0;exitX=1;exitY=1;exitDx=0;exitDy=0;entryX=0.25;entryY=0;entryDx=0;entryDy=0;" parent="1" source="UmN1ryKaJYNSOMEjlBWB-104" target="UmN1ryKaJYNSOMEjlBWB-109" edge="1">
          <mxGeometry relative="1" as="geometry">
            <mxPoint x="516" y="674" as="sourcePoint" />
            <mxPoint x="385" y="760" as="targetPoint" />
          </mxGeometry>
        </mxCell>
        <mxCell id="UmN1ryKaJYNSOMEjlBWB-158" value="Past_Diagnosis" style="ellipse;whiteSpace=wrap;html=1;align=center;" parent="1" vertex="1">
          <mxGeometry x="1612" y="135" width="100" height="40" as="geometry" />
        </mxCell>
        <mxCell id="UmN1ryKaJYNSOMEjlBWB-159" value="Treatment_History" style="ellipse;whiteSpace=wrap;html=1;align=center;" parent="1" vertex="1">
          <mxGeometry x="1752" y="143" width="100" height="40" as="geometry" />
        </mxCell>
        <mxCell id="UmN1ryKaJYNSOMEjlBWB-161" value="Current_Medication" style="ellipse;whiteSpace=wrap;html=1;align=center;" parent="1" vertex="1">
          <mxGeometry x="1495" y="165" width="110" height="40" as="geometry" />
        </mxCell>
        <mxCell id="UmN1ryKaJYNSOMEjlBWB-165" value="Patient_ID" style="ellipse;whiteSpace=wrap;html=1;align=center;" parent="1" vertex="1">
          <mxGeometry x="1820.25" y="320" width="100" height="40" as="geometry" />
        </mxCell>
        <mxCell id="UmN1ryKaJYNSOMEjlBWB-166" value="" style="endArrow=none;html=1;rounded=0;entryX=0.5;entryY=0;entryDx=0;entryDy=0;exitX=0.5;exitY=1;exitDx=0;exitDy=0;" parent="1" source="UmN1ryKaJYNSOMEjlBWB-158" edge="1">
          <mxGeometry relative="1" as="geometry">
            <mxPoint x="1410" y="247" as="sourcePoint" />
            <mxPoint x="1541" y="273.31999999999994" as="targetPoint" />
          </mxGeometry>
        </mxCell>
        <mxCell id="oUTGvt62Zgn5PgWrx45k-1" value="" style="endArrow=none;html=1;rounded=0;entryX=0.5;entryY=0;entryDx=0;entryDy=0;exitX=0;exitY=1;exitDx=0;exitDy=0;" parent="1" source="UmN1ryKaJYNSOMEjlBWB-159" edge="1">
          <mxGeometry relative="1" as="geometry">
            <mxPoint x="1588" y="231" as="sourcePoint" />
            <mxPoint x="1554" y="273" as="targetPoint" />
          </mxGeometry>
        </mxCell>
        <mxCell id="umu3U105oiYe72CDvPgY-3" value="Instructor" style="whiteSpace=wrap;html=1;align=center;" parent="1" vertex="1">
          <mxGeometry x="78" y="845" width="100" height="40" as="geometry" />
        </mxCell>
        <mxCell id="umu3U105oiYe72CDvPgY-4" value="U" style="ellipse;whiteSpace=wrap;html=1;aspect=fixed;" parent="1" vertex="1">
          <mxGeometry x="104" y="741" width="51" height="51" as="geometry" />
        </mxCell>
        <mxCell id="umu3U105oiYe72CDvPgY-5" value="" style="endArrow=none;html=1;rounded=0;exitX=0.5;exitY=1;exitDx=0;exitDy=0;entryX=0.5;entryY=0;entryDx=0;entryDy=0;" parent="1" source="UmN1ryKaJYNSOMEjlBWB-107" target="umu3U105oiYe72CDvPgY-4" edge="1">
          <mxGeometry relative="1" as="geometry">
            <mxPoint x="598" y="715" as="sourcePoint" />
            <mxPoint x="758" y="715" as="targetPoint" />
          </mxGeometry>
        </mxCell>
        <mxCell id="umu3U105oiYe72CDvPgY-6" value="" style="endArrow=none;html=1;rounded=0;entryX=0.5;entryY=0;entryDx=0;entryDy=0;exitX=0.25;exitY=1;exitDx=0;exitDy=0;" parent="1" source="UmN1ryKaJYNSOMEjlBWB-129" target="umu3U105oiYe72CDvPgY-4" edge="1">
          <mxGeometry relative="1" as="geometry">
            <mxPoint x="468" y="663" as="sourcePoint" />
            <mxPoint x="580" y="741" as="targetPoint" />
          </mxGeometry>
        </mxCell>
        <mxCell id="umu3U105oiYe72CDvPgY-7" value="" style="endArrow=none;html=1;rounded=0;exitX=0.5;exitY=1;exitDx=0;exitDy=0;entryX=0.5;entryY=0;entryDx=0;entryDy=0;" parent="1" source="umu3U105oiYe72CDvPgY-4" target="umu3U105oiYe72CDvPgY-3" edge="1">
          <mxGeometry relative="1" as="geometry">
            <mxPoint x="357.5" y="819" as="sourcePoint" />
            <mxPoint x="482.5" y="910" as="targetPoint" />
          </mxGeometry>
        </mxCell>
        <mxCell id="umu3U105oiYe72CDvPgY-8" value="Teaches" style="shape=rhombus;perimeter=rhombusPerimeter;whiteSpace=wrap;html=1;align=center;" parent="1" vertex="1">
          <mxGeometry x="68" y="923" width="120" height="60" as="geometry" />
        </mxCell>
        <mxCell id="umu3U105oiYe72CDvPgY-9" value="" style="endArrow=none;html=1;rounded=0;exitX=0.5;exitY=1;exitDx=0;exitDy=0;entryX=0.5;entryY=0;entryDx=0;entryDy=0;" parent="1" source="umu3U105oiYe72CDvPgY-3" target="umu3U105oiYe72CDvPgY-8" edge="1">
          <mxGeometry relative="1" as="geometry">
            <mxPoint x="598" y="715" as="sourcePoint" />
            <mxPoint x="758" y="715" as="targetPoint" />
          </mxGeometry>
        </mxCell>
        <mxCell id="umu3U105oiYe72CDvPgY-10" value="Courses" style="whiteSpace=wrap;html=1;align=center;" parent="1" vertex="1">
          <mxGeometry x="310" y="933" width="100" height="40" as="geometry" />
        </mxCell>
        <mxCell id="umu3U105oiYe72CDvPgY-12" value="Student" style="whiteSpace=wrap;html=1;align=center;" parent="1" vertex="1">
          <mxGeometry x="540" y="819" width="100" height="40" as="geometry" />
        </mxCell>
        <mxCell id="umu3U105oiYe72CDvPgY-13" value="U" style="ellipse;whiteSpace=wrap;html=1;aspect=fixed;" parent="1" vertex="1">
          <mxGeometry x="544" y="728" width="56" height="56" as="geometry" />
        </mxCell>
        <mxCell id="umu3U105oiYe72CDvPgY-15" value="" style="endArrow=none;html=1;rounded=0;entryX=0.5;entryY=0;entryDx=0;entryDy=0;exitX=0.5;exitY=1;exitDx=0;exitDy=0;" parent="1" source="UmN1ryKaJYNSOMEjlBWB-129" target="umu3U105oiYe72CDvPgY-13" edge="1">
          <mxGeometry relative="1" as="geometry">
            <mxPoint x="448" y="663" as="sourcePoint" />
            <mxPoint x="143" y="754" as="targetPoint" />
          </mxGeometry>
        </mxCell>
        <mxCell id="umu3U105oiYe72CDvPgY-16" value="" style="endArrow=none;html=1;rounded=0;entryX=0.5;entryY=0;entryDx=0;entryDy=0;exitX=0.5;exitY=1;exitDx=0;exitDy=0;" parent="1" source="UmN1ryKaJYNSOMEjlBWB-107" target="umu3U105oiYe72CDvPgY-13" edge="1">
          <mxGeometry relative="1" as="geometry">
            <mxPoint x="156" y="663" as="sourcePoint" />
            <mxPoint x="580" y="757" as="targetPoint" />
          </mxGeometry>
        </mxCell>
        <mxCell id="umu3U105oiYe72CDvPgY-17" value="" style="endArrow=none;html=1;rounded=0;exitX=0.25;exitY=1;exitDx=0;exitDy=0;entryX=0.5;entryY=0;entryDx=0;entryDy=0;" parent="1" source="UmN1ryKaJYNSOMEjlBWB-109" target="umu3U105oiYe72CDvPgY-13" edge="1">
          <mxGeometry relative="1" as="geometry">
            <mxPoint x="637" y="728" as="sourcePoint" />
            <mxPoint x="797" y="728" as="targetPoint" />
          </mxGeometry>
        </mxCell>
        <mxCell id="umu3U105oiYe72CDvPgY-18" value="" style="endArrow=none;html=1;rounded=0;exitX=0.5;exitY=1;exitDx=0;exitDy=0;entryX=0.376;entryY=0.018;entryDx=0;entryDy=0;entryPerimeter=0;" parent="1" source="umu3U105oiYe72CDvPgY-13" target="umu3U105oiYe72CDvPgY-12" edge="1">
          <mxGeometry relative="1" as="geometry">
            <mxPoint x="637" y="728" as="sourcePoint" />
            <mxPoint x="797" y="728" as="targetPoint" />
          </mxGeometry>
        </mxCell>
        <mxCell id="umu3U105oiYe72CDvPgY-20" value="Enroll" style="rhombus;whiteSpace=wrap;html=1;" parent="1" vertex="1">
          <mxGeometry x="550" y="913" width="80" height="80" as="geometry" />
        </mxCell>
        <mxCell id="umu3U105oiYe72CDvPgY-21" value="" style="endArrow=none;html=1;rounded=0;exitX=0.5;exitY=1;exitDx=0;exitDy=0;entryX=0.5;entryY=0;entryDx=0;entryDy=0;" parent="1" source="umu3U105oiYe72CDvPgY-12" target="umu3U105oiYe72CDvPgY-20" edge="1">
          <mxGeometry relative="1" as="geometry">
            <mxPoint x="637" y="728" as="sourcePoint" />
            <mxPoint x="797" y="728" as="targetPoint" />
          </mxGeometry>
        </mxCell>
        <mxCell id="umu3U105oiYe72CDvPgY-22" value="" style="endArrow=none;html=1;rounded=0;entryX=0;entryY=0.5;entryDx=0;entryDy=0;exitX=1;exitY=0.5;exitDx=0;exitDy=0;" parent="1" source="umu3U105oiYe72CDvPgY-10" target="umu3U105oiYe72CDvPgY-20" edge="1">
          <mxGeometry relative="1" as="geometry">
            <mxPoint x="486" y="676" as="sourcePoint" />
            <mxPoint x="593" y="770" as="targetPoint" />
          </mxGeometry>
        </mxCell>
        <mxCell id="umu3U105oiYe72CDvPgY-30" value="M" style="text;html=1;align=center;verticalAlign=middle;resizable=0;points=[];autosize=1;strokeColor=none;fillColor=none;" parent="1" vertex="1">
          <mxGeometry x="131" y="897" width="39" height="26" as="geometry" />
        </mxCell>
        <mxCell id="umu3U105oiYe72CDvPgY-31" value="N" style="text;html=1;align=center;verticalAlign=middle;resizable=0;points=[];autosize=1;strokeColor=none;fillColor=none;" parent="1" vertex="1">
          <mxGeometry x="196" y="962" width="39" height="26" as="geometry" />
        </mxCell>
        <mxCell id="umu3U105oiYe72CDvPgY-32" value="M" style="text;html=1;align=center;verticalAlign=middle;resizable=0;points=[];autosize=1;strokeColor=none;fillColor=none;" parent="1" vertex="1">
          <mxGeometry x="586" y="884" width="39" height="26" as="geometry" />
        </mxCell>
        <mxCell id="umu3U105oiYe72CDvPgY-33" value="N&lt;span style=&quot;white-space: pre;&quot;&gt;&#x9;&lt;/span&gt;" style="text;html=1;align=center;verticalAlign=middle;resizable=0;points=[];autosize=1;strokeColor=none;fillColor=none;" parent="1" vertex="1">
          <mxGeometry x="518" y="957" width="52" height="26" as="geometry" />
        </mxCell>
        <mxCell id="umu3U105oiYe72CDvPgY-34" value="Provides" style="shape=rhombus;perimeter=rhombusPerimeter;whiteSpace=wrap;html=1;align=center;" parent="1" vertex="1">
          <mxGeometry x="720" y="668" width="120" height="60" as="geometry" />
        </mxCell>
        <mxCell id="umu3U105oiYe72CDvPgY-36" value="" style="endArrow=none;html=1;rounded=0;exitX=0.75;exitY=1;exitDx=0;exitDy=0;entryX=0.5;entryY=0;entryDx=0;entryDy=0;" parent="1" source="UmN1ryKaJYNSOMEjlBWB-13" target="umu3U105oiYe72CDvPgY-34" edge="1">
          <mxGeometry relative="1" as="geometry">
            <mxPoint x="845" y="663" as="sourcePoint" />
            <mxPoint x="1005" y="663" as="targetPoint" />
            <Array as="points" />
          </mxGeometry>
        </mxCell>
        <mxCell id="umu3U105oiYe72CDvPgY-69" value="Pharmacy" style="whiteSpace=wrap;html=1;align=center;" parent="1" vertex="1">
          <mxGeometry x="1210" y="1442" width="100" height="40" as="geometry" />
        </mxCell>
        <mxCell id="umu3U105oiYe72CDvPgY-95" value="" style="endArrow=none;html=1;rounded=0;entryX=0.5;entryY=0;entryDx=0;entryDy=0;exitX=1;exitY=0.5;exitDx=0;exitDy=0;" parent="1" source="umu3U105oiYe72CDvPgY-101" target="VUkm5OOeQnTbvhqiQd82-7" edge="1">
          <mxGeometry relative="1" as="geometry">
            <mxPoint x="1725" y="1046.9999999999998" as="sourcePoint" />
            <mxPoint x="1629" y="1442" as="targetPoint" />
          </mxGeometry>
        </mxCell>
        <mxCell id="umu3U105oiYe72CDvPgY-101" value="Made" style="shape=rhombus;perimeter=rhombusPerimeter;whiteSpace=wrap;html=1;align=center;" parent="1" vertex="1">
          <mxGeometry x="1547" y="784" width="120" height="60" as="geometry" />
        </mxCell>
        <mxCell id="umu3U105oiYe72CDvPgY-124" value="Has" style="shape=rhombus;perimeter=rhombusPerimeter;whiteSpace=wrap;html=1;align=center;" parent="1" vertex="1">
          <mxGeometry x="1469" y="949" width="120" height="65" as="geometry" />
        </mxCell>
        <mxCell id="umu3U105oiYe72CDvPgY-125" value="" style="endArrow=none;html=1;rounded=0;exitX=0.5;exitY=0;exitDx=0;exitDy=0;entryX=1;entryY=1;entryDx=0;entryDy=0;" parent="1" source="umu3U105oiYe72CDvPgY-101" target="UmN1ryKaJYNSOMEjlBWB-14" edge="1">
          <mxGeometry relative="1" as="geometry">
            <mxPoint x="1351" y="857" as="sourcePoint" />
            <mxPoint x="1296" y="768" as="targetPoint" />
            <Array as="points">
              <mxPoint x="1495" y="702" />
            </Array>
          </mxGeometry>
        </mxCell>
        <mxCell id="umu3U105oiYe72CDvPgY-129" value="Billing Information" style="whiteSpace=wrap;html=1;align=center;" parent="1" vertex="1">
          <mxGeometry x="1789.63" y="1170" width="100" height="40" as="geometry" />
        </mxCell>
        <mxCell id="umu3U105oiYe72CDvPgY-130" value="" style="endArrow=none;html=1;rounded=0;exitX=0.75;exitY=1;exitDx=0;exitDy=0;entryX=0.5;entryY=0;entryDx=0;entryDy=0;" parent="1" source="UmN1ryKaJYNSOMEjlBWB-14" target="umu3U105oiYe72CDvPgY-124" edge="1">
          <mxGeometry relative="1" as="geometry">
            <mxPoint x="1313" y="832" as="sourcePoint" />
            <mxPoint x="1473" y="832" as="targetPoint" />
          </mxGeometry>
        </mxCell>
        <mxCell id="umu3U105oiYe72CDvPgY-131" value="" style="endArrow=none;html=1;rounded=0;entryX=0.5;entryY=1;entryDx=0;entryDy=0;exitX=0;exitY=0.5;exitDx=0;exitDy=0;" parent="1" source="umu3U105oiYe72CDvPgY-129" target="umu3U105oiYe72CDvPgY-124" edge="1">
          <mxGeometry relative="1" as="geometry">
            <mxPoint x="1313" y="832" as="sourcePoint" />
            <mxPoint x="1473" y="832" as="targetPoint" />
            <Array as="points">
              <mxPoint x="1625" y="1092" />
            </Array>
          </mxGeometry>
        </mxCell>
        <mxCell id="umu3U105oiYe72CDvPgY-136" value="Billing ID" style="ellipse;whiteSpace=wrap;html=1;align=center;fontStyle=4;" parent="1" vertex="1">
          <mxGeometry x="1667" y="1079" width="100" height="40" as="geometry" />
        </mxCell>
        <mxCell id="umu3U105oiYe72CDvPgY-140" value="Patient ID" style="ellipse;whiteSpace=wrap;html=1;align=center;" parent="1" vertex="1">
          <mxGeometry x="1742" y="1023" width="100" height="40" as="geometry" />
        </mxCell>
        <mxCell id="umu3U105oiYe72CDvPgY-141" value="Date" style="ellipse;whiteSpace=wrap;html=1;align=center;" parent="1" vertex="1">
          <mxGeometry x="1852" y="1027" width="100" height="40" as="geometry" />
        </mxCell>
        <mxCell id="umu3U105oiYe72CDvPgY-144" value="" style="endArrow=none;html=1;rounded=0;exitX=1;exitY=1;exitDx=0;exitDy=0;entryX=0.43;entryY=0;entryDx=0;entryDy=0;entryPerimeter=0;" parent="1" source="umu3U105oiYe72CDvPgY-136" target="umu3U105oiYe72CDvPgY-129" edge="1">
          <mxGeometry relative="1" as="geometry">
            <mxPoint x="1859" y="1027" as="sourcePoint" />
            <mxPoint x="2019" y="1027" as="targetPoint" />
          </mxGeometry>
        </mxCell>
        <mxCell id="umu3U105oiYe72CDvPgY-145" value="" style="endArrow=none;html=1;rounded=0;exitX=0.5;exitY=1;exitDx=0;exitDy=0;entryX=0.422;entryY=-0.02;entryDx=0;entryDy=0;entryPerimeter=0;" parent="1" source="umu3U105oiYe72CDvPgY-140" target="umu3U105oiYe72CDvPgY-129" edge="1">
          <mxGeometry relative="1" as="geometry">
            <mxPoint x="1774" y="1100" as="sourcePoint" />
            <mxPoint x="1844" y="1144" as="targetPoint" />
          </mxGeometry>
        </mxCell>
        <mxCell id="umu3U105oiYe72CDvPgY-146" value="" style="endArrow=none;html=1;rounded=0;exitX=0.284;exitY=0.97;exitDx=0;exitDy=0;entryX=0.5;entryY=0;entryDx=0;entryDy=0;exitPerimeter=0;" parent="1" source="umu3U105oiYe72CDvPgY-141" target="umu3U105oiYe72CDvPgY-129" edge="1">
          <mxGeometry relative="1" as="geometry">
            <mxPoint x="1758" y="1139" as="sourcePoint" />
            <mxPoint x="1828" y="1183" as="targetPoint" />
          </mxGeometry>
        </mxCell>
        <mxCell id="umu3U105oiYe72CDvPgY-147" value="" style="endArrow=none;html=1;rounded=0;exitX=0;exitY=0.5;exitDx=0;exitDy=0;entryX=0.588;entryY=-0.009;entryDx=0;entryDy=0;entryPerimeter=0;" parent="1" source="l3VvjnMhBTpfvbGfhZ33-146" target="umu3U105oiYe72CDvPgY-129" edge="1">
          <mxGeometry relative="1" as="geometry">
            <mxPoint x="1962.0000000000055" y="1142.5" as="sourcePoint" />
            <mxPoint x="1841" y="1196" as="targetPoint" />
          </mxGeometry>
        </mxCell>
        <mxCell id="umu3U105oiYe72CDvPgY-149" value="Mode" style="shape=rhombus;perimeter=rhombusPerimeter;whiteSpace=wrap;html=1;align=center;" parent="1" vertex="1">
          <mxGeometry x="1842" y="1248" width="120" height="60" as="geometry" />
        </mxCell>
        <mxCell id="umu3U105oiYe72CDvPgY-155" value="Payment Method" style="whiteSpace=wrap;html=1;align=center;" parent="1" vertex="1">
          <mxGeometry x="2131" y="1258" width="100" height="40" as="geometry" />
        </mxCell>
        <mxCell id="umu3U105oiYe72CDvPgY-156" value="" style="ellipse;whiteSpace=wrap;html=1;aspect=fixed;" parent="1" vertex="1">
          <mxGeometry x="2156" y="1352" width="54" height="54" as="geometry" />
        </mxCell>
        <mxCell id="umu3U105oiYe72CDvPgY-157" value="" style="ellipse;whiteSpace=wrap;html=1;aspect=fixed;" parent="1" vertex="1">
          <mxGeometry x="2172.25" y="1368.25" width="17.5" height="17.5" as="geometry" />
        </mxCell>
        <mxCell id="umu3U105oiYe72CDvPgY-158" value="Insurance" style="whiteSpace=wrap;html=1;align=center;" parent="1" vertex="1">
          <mxGeometry x="2210" y="1508" width="100" height="40" as="geometry" />
        </mxCell>
        <mxCell id="umu3U105oiYe72CDvPgY-159" value="Cash" style="whiteSpace=wrap;html=1;align=center;" parent="1" vertex="1">
          <mxGeometry x="1816.5" y="1510" width="100" height="40" as="geometry" />
        </mxCell>
        <mxCell id="umu3U105oiYe72CDvPgY-160" value="Credit" style="whiteSpace=wrap;html=1;align=center;" parent="1" vertex="1">
          <mxGeometry x="2015" y="1537" width="100" height="40" as="geometry" />
        </mxCell>
        <mxCell id="umu3U105oiYe72CDvPgY-170" value="" style="endArrow=none;html=1;rounded=0;entryX=0.5;entryY=1;entryDx=0;entryDy=0;exitX=1;exitY=0.5;exitDx=0;exitDy=0;" parent="1" source="umu3U105oiYe72CDvPgY-159" target="umu3U105oiYe72CDvPgY-156" edge="1">
          <mxGeometry relative="1" as="geometry">
            <mxPoint x="1930" y="1376.09" as="sourcePoint" />
            <mxPoint x="2090" y="1376.09" as="targetPoint" />
          </mxGeometry>
        </mxCell>
        <mxCell id="umu3U105oiYe72CDvPgY-171" value="" style="endArrow=none;html=1;rounded=0;exitX=0.5;exitY=0;exitDx=0;exitDy=0;entryX=0.5;entryY=1;entryDx=0;entryDy=0;" parent="1" source="umu3U105oiYe72CDvPgY-160" target="umu3U105oiYe72CDvPgY-156" edge="1">
          <mxGeometry relative="1" as="geometry">
            <mxPoint x="2003" y="1450" as="sourcePoint" />
            <mxPoint x="2184" y="1430" as="targetPoint" />
          </mxGeometry>
        </mxCell>
        <mxCell id="umu3U105oiYe72CDvPgY-173" value="" style="endArrow=none;html=1;rounded=0;entryX=0.5;entryY=0;entryDx=0;entryDy=0;exitX=0.5;exitY=1;exitDx=0;exitDy=0;" parent="1" source="umu3U105oiYe72CDvPgY-156" target="umu3U105oiYe72CDvPgY-158" edge="1">
          <mxGeometry relative="1" as="geometry">
            <mxPoint x="2197" y="1391" as="sourcePoint" />
            <mxPoint x="1746" y="1261" as="targetPoint" />
          </mxGeometry>
        </mxCell>
        <mxCell id="umu3U105oiYe72CDvPgY-178" value="Amount" style="ellipse;whiteSpace=wrap;html=1;align=center;" parent="1" vertex="1">
          <mxGeometry x="2275" y="1639" width="100" height="40" as="geometry" />
        </mxCell>
        <mxCell id="umu3U105oiYe72CDvPgY-179" value="Insurance_Company_Name" style="ellipse;whiteSpace=wrap;html=1;align=center;" parent="1" vertex="1">
          <mxGeometry x="2131" y="1689" width="166.5" height="40" as="geometry" />
        </mxCell>
        <mxCell id="umu3U105oiYe72CDvPgY-182" value="" style="endArrow=none;html=1;rounded=0;entryX=0.75;entryY=1;entryDx=0;entryDy=0;exitX=0.5;exitY=0;exitDx=0;exitDy=0;" parent="1" source="l3VvjnMhBTpfvbGfhZ33-151" target="umu3U105oiYe72CDvPgY-158" edge="1">
          <mxGeometry relative="1" as="geometry">
            <mxPoint x="2125" y="1649" as="sourcePoint" />
            <mxPoint x="1967" y="1313" as="targetPoint" />
          </mxGeometry>
        </mxCell>
        <mxCell id="umu3U105oiYe72CDvPgY-183" value="" style="endArrow=none;html=1;rounded=0;entryX=0.75;entryY=1;entryDx=0;entryDy=0;exitX=0.5;exitY=0;exitDx=0;exitDy=0;" parent="1" source="umu3U105oiYe72CDvPgY-179" target="umu3U105oiYe72CDvPgY-158" edge="1">
          <mxGeometry relative="1" as="geometry">
            <mxPoint x="2132" y="1618" as="sourcePoint" />
            <mxPoint x="2202" y="1561" as="targetPoint" />
          </mxGeometry>
        </mxCell>
        <mxCell id="umu3U105oiYe72CDvPgY-184" value="" style="endArrow=none;html=1;rounded=0;entryX=0.75;entryY=1;entryDx=0;entryDy=0;exitX=0.5;exitY=0;exitDx=0;exitDy=0;" parent="1" source="umu3U105oiYe72CDvPgY-178" target="umu3U105oiYe72CDvPgY-158" edge="1">
          <mxGeometry relative="1" as="geometry">
            <mxPoint x="2145" y="1631" as="sourcePoint" />
            <mxPoint x="2215" y="1574" as="targetPoint" />
          </mxGeometry>
        </mxCell>
        <mxCell id="fGyipN-ep7-rFaa1frUd-1" value="Prescription" style="rounded=0;whiteSpace=wrap;html=1;" parent="1" vertex="1">
          <mxGeometry x="1359" y="1039" width="120" height="60" as="geometry" />
        </mxCell>
        <mxCell id="fGyipN-ep7-rFaa1frUd-2" value="Patient ID" style="ellipse;whiteSpace=wrap;html=1;" parent="1" vertex="1">
          <mxGeometry x="1239" y="1157" width="109" height="51" as="geometry" />
        </mxCell>
        <mxCell id="fGyipN-ep7-rFaa1frUd-3" value="&lt;u&gt;Prescription_I&lt;/u&gt;D" style="ellipse;whiteSpace=wrap;html=1;" parent="1" vertex="1">
          <mxGeometry x="1259" y="1221" width="120" height="52" as="geometry" />
        </mxCell>
        <mxCell id="fGyipN-ep7-rFaa1frUd-5" value="Dosage" style="ellipse;whiteSpace=wrap;html=1;" parent="1" vertex="1">
          <mxGeometry x="1427" y="1242" width="120" height="45" as="geometry" />
        </mxCell>
        <mxCell id="fGyipN-ep7-rFaa1frUd-7" value="Refill_Information" style="ellipse;whiteSpace=wrap;html=1;" parent="1" vertex="1">
          <mxGeometry x="1505" y="1202" width="120" height="40" as="geometry" />
        </mxCell>
        <mxCell id="fGyipN-ep7-rFaa1frUd-11" value="" style="endArrow=none;html=1;rounded=0;entryX=0.5;entryY=0;entryDx=0;entryDy=0;exitX=0.5;exitY=1;exitDx=0;exitDy=0;" parent="1" source="fGyipN-ep7-rFaa1frUd-1" target="fGyipN-ep7-rFaa1frUd-7" edge="1">
          <mxGeometry width="50" height="50" relative="1" as="geometry">
            <mxPoint x="1443" y="1105" as="sourcePoint" />
            <mxPoint x="825" y="1325.75" as="targetPoint" />
          </mxGeometry>
        </mxCell>
        <mxCell id="fGyipN-ep7-rFaa1frUd-14" value="" style="endArrow=none;html=1;rounded=0;exitX=0.5;exitY=1;exitDx=0;exitDy=0;" parent="1" source="fGyipN-ep7-rFaa1frUd-1" target="fGyipN-ep7-rFaa1frUd-3" edge="1">
          <mxGeometry width="50" height="50" relative="1" as="geometry">
            <mxPoint x="530" y="1298" as="sourcePoint" />
            <mxPoint x="580" y="1248" as="targetPoint" />
          </mxGeometry>
        </mxCell>
        <mxCell id="fGyipN-ep7-rFaa1frUd-16" value="" style="endArrow=none;html=1;rounded=0;entryX=0.5;entryY=0;entryDx=0;entryDy=0;exitX=0.5;exitY=1;exitDx=0;exitDy=0;" parent="1" source="fGyipN-ep7-rFaa1frUd-1" target="fGyipN-ep7-rFaa1frUd-2" edge="1">
          <mxGeometry width="50" height="50" relative="1" as="geometry">
            <mxPoint x="715" y="1326" as="sourcePoint" />
            <mxPoint x="648" y="1261" as="targetPoint" />
          </mxGeometry>
        </mxCell>
        <mxCell id="l3VvjnMhBTpfvbGfhZ33-12" value="Treatment" style="whiteSpace=wrap;html=1;align=center;" parent="1" vertex="1">
          <mxGeometry x="740" y="857" width="105" height="40" as="geometry" />
        </mxCell>
        <mxCell id="l3VvjnMhBTpfvbGfhZ33-15" value="Treatment_ID" style="ellipse;whiteSpace=wrap;html=1;align=center;fontStyle=4;" parent="1" vertex="1">
          <mxGeometry x="640" y="987" width="100" height="40" as="geometry" />
        </mxCell>
        <mxCell id="l3VvjnMhBTpfvbGfhZ33-16" value="Outcome" style="ellipse;whiteSpace=wrap;html=1;align=center;" parent="1" vertex="1">
          <mxGeometry x="880" y="963" width="100" height="40" as="geometry" />
        </mxCell>
        <mxCell id="l3VvjnMhBTpfvbGfhZ33-17" value="End_Date" style="ellipse;whiteSpace=wrap;html=1;align=center;" parent="1" vertex="1">
          <mxGeometry x="845" y="1033" width="100" height="40" as="geometry" />
        </mxCell>
        <mxCell id="l3VvjnMhBTpfvbGfhZ33-18" value="Start_Date" style="ellipse;whiteSpace=wrap;html=1;align=center;" parent="1" vertex="1">
          <mxGeometry x="754.5" y="983" width="100" height="40" as="geometry" />
        </mxCell>
        <mxCell id="l3VvjnMhBTpfvbGfhZ33-19" value="Description" style="ellipse;whiteSpace=wrap;html=1;align=center;" parent="1" vertex="1">
          <mxGeometry x="680" y="1047" width="100" height="40" as="geometry" />
        </mxCell>
        <mxCell id="l3VvjnMhBTpfvbGfhZ33-21" value="" style="endArrow=none;html=1;rounded=0;entryX=0.5;entryY=0;entryDx=0;entryDy=0;" parent="1" target="l3VvjnMhBTpfvbGfhZ33-16" edge="1">
          <mxGeometry relative="1" as="geometry">
            <mxPoint x="790" y="897" as="sourcePoint" />
            <mxPoint x="938" y="700" as="targetPoint" />
            <Array as="points" />
          </mxGeometry>
        </mxCell>
        <mxCell id="l3VvjnMhBTpfvbGfhZ33-22" value="" style="endArrow=none;html=1;rounded=0;entryX=0.5;entryY=0;entryDx=0;entryDy=0;exitX=0.5;exitY=1;exitDx=0;exitDy=0;" parent="1" source="l3VvjnMhBTpfvbGfhZ33-12" target="l3VvjnMhBTpfvbGfhZ33-17" edge="1">
          <mxGeometry relative="1" as="geometry">
            <mxPoint x="780" y="871" as="sourcePoint" />
            <mxPoint x="951" y="713" as="targetPoint" />
            <Array as="points" />
          </mxGeometry>
        </mxCell>
        <mxCell id="l3VvjnMhBTpfvbGfhZ33-23" value="" style="endArrow=none;html=1;rounded=0;exitX=0.5;exitY=1;exitDx=0;exitDy=0;entryX=0.5;entryY=0;entryDx=0;entryDy=0;" parent="1" source="l3VvjnMhBTpfvbGfhZ33-12" target="l3VvjnMhBTpfvbGfhZ33-18" edge="1">
          <mxGeometry relative="1" as="geometry">
            <mxPoint x="1099" y="786" as="sourcePoint" />
            <mxPoint x="964" y="726" as="targetPoint" />
            <Array as="points" />
          </mxGeometry>
        </mxCell>
        <mxCell id="l3VvjnMhBTpfvbGfhZ33-24" value="" style="endArrow=none;html=1;rounded=0;exitX=0.5;exitY=1;exitDx=0;exitDy=0;entryX=0.5;entryY=0;entryDx=0;entryDy=0;" parent="1" source="l3VvjnMhBTpfvbGfhZ33-12" target="l3VvjnMhBTpfvbGfhZ33-19" edge="1">
          <mxGeometry relative="1" as="geometry">
            <mxPoint x="1112" y="799" as="sourcePoint" />
            <mxPoint x="977" y="739" as="targetPoint" />
            <Array as="points" />
          </mxGeometry>
        </mxCell>
        <mxCell id="l3VvjnMhBTpfvbGfhZ33-25" value="" style="endArrow=none;html=1;rounded=0;exitX=0.5;exitY=1;exitDx=0;exitDy=0;entryX=0.5;entryY=0;entryDx=0;entryDy=0;" parent="1" source="l3VvjnMhBTpfvbGfhZ33-12" target="l3VvjnMhBTpfvbGfhZ33-15" edge="1">
          <mxGeometry relative="1" as="geometry">
            <mxPoint x="1125" y="812" as="sourcePoint" />
            <mxPoint x="990" y="752" as="targetPoint" />
            <Array as="points" />
          </mxGeometry>
        </mxCell>
        <mxCell id="l3VvjnMhBTpfvbGfhZ33-28" value="Purpose" style="ellipse;whiteSpace=wrap;html=1;align=center;" parent="1" vertex="1">
          <mxGeometry x="954.5" y="600.29" width="100" height="40" as="geometry" />
        </mxCell>
        <mxCell id="l3VvjnMhBTpfvbGfhZ33-29" value="Time" style="ellipse;whiteSpace=wrap;html=1;align=center;" parent="1" vertex="1">
          <mxGeometry x="870" y="430" width="100" height="40" as="geometry" />
        </mxCell>
        <mxCell id="l3VvjnMhBTpfvbGfhZ33-37" value="Date" style="ellipse;whiteSpace=wrap;html=1;align=center;" parent="1" vertex="1">
          <mxGeometry x="976" y="470" width="100" height="40" as="geometry" />
        </mxCell>
        <mxCell id="l3VvjnMhBTpfvbGfhZ33-38" value="" style="endArrow=none;html=1;rounded=0;entryX=0.5;entryY=1;entryDx=0;entryDy=0;exitX=0.5;exitY=0;exitDx=0;exitDy=0;" parent="1" source="xj5izY7rxrqVxDNS5dNn-2" target="sDBs3e84eTA9IbxTBQSH-1" edge="1">
          <mxGeometry relative="1" as="geometry">
            <mxPoint x="1000" y="1039" as="sourcePoint" />
            <mxPoint x="1105" y="960" as="targetPoint" />
            <Array as="points" />
          </mxGeometry>
        </mxCell>
        <mxCell id="l3VvjnMhBTpfvbGfhZ33-48" value="" style="endArrow=none;html=1;rounded=0;entryX=0.5;entryY=0;entryDx=0;entryDy=0;exitX=0.5;exitY=1;exitDx=0;exitDy=0;" parent="1" source="fGyipN-ep7-rFaa1frUd-1" target="fGyipN-ep7-rFaa1frUd-5" edge="1">
          <mxGeometry width="50" height="50" relative="1" as="geometry">
            <mxPoint x="1443" y="1391" as="sourcePoint" />
            <mxPoint x="1362" y="1599" as="targetPoint" />
          </mxGeometry>
        </mxCell>
        <mxCell id="l3VvjnMhBTpfvbGfhZ33-49" value="" style="endArrow=none;html=1;rounded=0;exitX=0.5;exitY=1;exitDx=0;exitDy=0;entryX=0.5;entryY=0;entryDx=0;entryDy=0;" parent="1" source="UmN1ryKaJYNSOMEjlBWB-14" target="l3VvjnMhBTpfvbGfhZ33-77" edge="1">
          <mxGeometry relative="1" as="geometry">
            <mxPoint x="1198" y="533" as="sourcePoint" />
            <mxPoint x="1287" y="728" as="targetPoint" />
          </mxGeometry>
        </mxCell>
        <mxCell id="lsmUkswyZwA1g1vvTX2x-33" value="" style="endArrow=none;html=1;rounded=0;exitX=1;exitY=1;exitDx=0;exitDy=0;entryX=0.5;entryY=0;entryDx=0;entryDy=0;" parent="1" source="sDBs3e84eTA9IbxTBQSH-1" target="l3VvjnMhBTpfvbGfhZ33-28" edge="1">
          <mxGeometry relative="1" as="geometry">
            <mxPoint x="1155" y="960" as="sourcePoint" />
            <mxPoint x="1359" y="879" as="targetPoint" />
          </mxGeometry>
        </mxCell>
        <mxCell id="lsmUkswyZwA1g1vvTX2x-34" value="Has" style="shape=rhombus;double=1;perimeter=rhombusPerimeter;whiteSpace=wrap;html=1;align=center;" parent="1" vertex="1">
          <mxGeometry x="1205.5" y="285" width="120" height="60" as="geometry" />
        </mxCell>
        <mxCell id="lsmUkswyZwA1g1vvTX2x-35" value="" style="shape=link;html=1;rounded=0;exitX=1;exitY=0.5;exitDx=0;exitDy=0;entryX=0;entryY=0.5;entryDx=0;entryDy=0;" parent="1" source="umu3U105oiYe72CDvPgY-8" target="umu3U105oiYe72CDvPgY-10" edge="1">
          <mxGeometry width="100" relative="1" as="geometry">
            <mxPoint x="702" y="806" as="sourcePoint" />
            <mxPoint x="802" y="806" as="targetPoint" />
          </mxGeometry>
        </mxCell>
        <mxCell id="lsmUkswyZwA1g1vvTX2x-36" value="" style="shape=link;html=1;rounded=0;exitX=0.25;exitY=1;exitDx=0;exitDy=0;entryX=0.5;entryY=0;entryDx=0;entryDy=0;" parent="1" source="umu3U105oiYe72CDvPgY-10" target="xj5izY7rxrqVxDNS5dNn-10" edge="1">
          <mxGeometry width="100" relative="1" as="geometry">
            <mxPoint x="702" y="806" as="sourcePoint" />
            <mxPoint x="802" y="806" as="targetPoint" />
          </mxGeometry>
        </mxCell>
        <mxCell id="lsmUkswyZwA1g1vvTX2x-37" value="N" style="text;html=1;align=center;verticalAlign=middle;resizable=0;points=[];autosize=1;strokeColor=none;fillColor=none;" parent="1" vertex="1">
          <mxGeometry x="287" y="1040" width="39" height="26" as="geometry" />
        </mxCell>
        <mxCell id="lsmUkswyZwA1g1vvTX2x-38" value="1" style="text;html=1;align=center;verticalAlign=middle;resizable=0;points=[];autosize=1;strokeColor=none;fillColor=none;" parent="1" vertex="1">
          <mxGeometry x="261" y="1118" width="39" height="26" as="geometry" />
        </mxCell>
        <mxCell id="lsmUkswyZwA1g1vvTX2x-39" value="" style="shape=link;html=1;rounded=0;exitX=0.5;exitY=1;exitDx=0;exitDy=0;entryX=0.5;entryY=0;entryDx=0;entryDy=0;" parent="1" source="umu3U105oiYe72CDvPgY-34" target="l3VvjnMhBTpfvbGfhZ33-12" edge="1">
          <mxGeometry width="100" relative="1" as="geometry">
            <mxPoint x="1092" y="689" as="sourcePoint" />
            <mxPoint x="1192" y="689" as="targetPoint" />
          </mxGeometry>
        </mxCell>
        <mxCell id="lsmUkswyZwA1g1vvTX2x-40" value="" style="shape=link;html=1;rounded=0;exitX=0;exitY=0.5;exitDx=0;exitDy=0;entryX=0.75;entryY=0;entryDx=0;entryDy=0;" parent="1" source="l3VvjnMhBTpfvbGfhZ33-54" target="l3VvjnMhBTpfvbGfhZ33-12" edge="1">
          <mxGeometry width="100" relative="1" as="geometry">
            <mxPoint x="793" y="741" as="sourcePoint" />
            <mxPoint x="803" y="870" as="targetPoint" />
          </mxGeometry>
        </mxCell>
        <mxCell id="lsmUkswyZwA1g1vvTX2x-41" value="M" style="text;html=1;align=center;verticalAlign=middle;resizable=0;points=[];autosize=1;strokeColor=none;fillColor=none;" parent="1" vertex="1">
          <mxGeometry x="781" y="728" width="39" height="26" as="geometry" />
        </mxCell>
        <mxCell id="lsmUkswyZwA1g1vvTX2x-42" value="N" style="text;html=1;align=center;verticalAlign=middle;resizable=0;points=[];autosize=1;strokeColor=none;fillColor=none;" parent="1" vertex="1">
          <mxGeometry x="781" y="637" width="39" height="26" as="geometry" />
        </mxCell>
        <mxCell id="lsmUkswyZwA1g1vvTX2x-43" value="1" style="text;html=1;align=center;verticalAlign=middle;resizable=0;points=[];autosize=1;strokeColor=none;fillColor=none;" parent="1" vertex="1">
          <mxGeometry x="872" y="728" width="39" height="26" as="geometry" />
        </mxCell>
        <mxCell id="lsmUkswyZwA1g1vvTX2x-44" value="N" style="text;html=1;align=center;verticalAlign=middle;resizable=0;points=[];autosize=1;strokeColor=none;fillColor=none;" parent="1" vertex="1">
          <mxGeometry x="985" y="663" width="39" height="26" as="geometry" />
        </mxCell>
        <mxCell id="lsmUkswyZwA1g1vvTX2x-46" value="" style="shape=link;html=1;rounded=0;entryX=0;entryY=0.75;entryDx=0;entryDy=0;exitX=1;exitY=0.5;exitDx=0;exitDy=0;" parent="1" source="umu3U105oiYe72CDvPgY-149" target="umu3U105oiYe72CDvPgY-155" edge="1">
          <mxGeometry width="100" relative="1" as="geometry">
            <mxPoint x="1690" y="1326" as="sourcePoint" />
            <mxPoint x="1790" y="1326" as="targetPoint" />
          </mxGeometry>
        </mxCell>
        <mxCell id="lsmUkswyZwA1g1vvTX2x-47" value="" style="shape=link;html=1;rounded=0;entryX=0;entryY=0.5;entryDx=0;entryDy=0;exitX=0.5;exitY=1;exitDx=0;exitDy=0;" parent="1" source="umu3U105oiYe72CDvPgY-129" target="umu3U105oiYe72CDvPgY-149" edge="1">
          <mxGeometry width="100" relative="1" as="geometry">
            <mxPoint x="1975" y="1291" as="sourcePoint" />
            <mxPoint x="2144" y="1301" as="targetPoint" />
          </mxGeometry>
        </mxCell>
        <mxCell id="lsmUkswyZwA1g1vvTX2x-48" value="1" style="text;html=1;align=center;verticalAlign=middle;resizable=0;points=[];autosize=1;strokeColor=none;fillColor=none;" parent="1" vertex="1">
          <mxGeometry x="1834" y="1222" width="39" height="26" as="geometry" />
        </mxCell>
        <mxCell id="lsmUkswyZwA1g1vvTX2x-49" value="N" style="text;html=1;align=center;verticalAlign=middle;resizable=0;points=[];autosize=1;strokeColor=none;fillColor=none;" parent="1" vertex="1">
          <mxGeometry x="1951" y="1248" width="39" height="26" as="geometry" />
        </mxCell>
        <mxCell id="lsmUkswyZwA1g1vvTX2x-50" value="Installment_Plans" style="ellipse;shape=doubleEllipse;margin=3;whiteSpace=wrap;html=1;align=center;" parent="1" vertex="1">
          <mxGeometry x="2033.5" y="1171" width="100" height="40" as="geometry" />
        </mxCell>
        <mxCell id="lsmUkswyZwA1g1vvTX2x-51" value="" style="endArrow=none;html=1;rounded=0;exitX=0;exitY=0.5;exitDx=0;exitDy=0;entryX=1;entryY=0.5;entryDx=0;entryDy=0;" parent="1" source="lsmUkswyZwA1g1vvTX2x-50" target="umu3U105oiYe72CDvPgY-129" edge="1">
          <mxGeometry relative="1" as="geometry">
            <mxPoint x="1980" y="1152" as="sourcePoint" />
            <mxPoint x="1831" y="1170" as="targetPoint" />
          </mxGeometry>
        </mxCell>
        <mxCell id="lsmUkswyZwA1g1vvTX2x-59" value="1" style="text;html=1;align=center;verticalAlign=middle;resizable=0;points=[];autosize=1;strokeColor=none;fillColor=none;" parent="1" vertex="1">
          <mxGeometry x="1340" y="1430" width="39" height="26" as="geometry" />
        </mxCell>
        <mxCell id="lsmUkswyZwA1g1vvTX2x-60" value="N" style="text;html=1;align=center;verticalAlign=middle;resizable=0;points=[];autosize=1;strokeColor=none;fillColor=none;" parent="1" vertex="1">
          <mxGeometry x="1470" y="1430" width="39" height="26" as="geometry" />
        </mxCell>
        <mxCell id="lsmUkswyZwA1g1vvTX2x-61" value="1" style="text;html=1;align=center;verticalAlign=middle;resizable=0;points=[];autosize=1;strokeColor=none;fillColor=none;" parent="1" vertex="1">
          <mxGeometry x="1145" y="1664" width="39" height="26" as="geometry" />
        </mxCell>
        <mxCell id="lsmUkswyZwA1g1vvTX2x-62" value="N" style="text;html=1;align=center;verticalAlign=middle;resizable=0;points=[];autosize=1;strokeColor=none;fillColor=none;" parent="1" vertex="1">
          <mxGeometry x="1184" y="1716" width="39" height="26" as="geometry" />
        </mxCell>
        <mxCell id="lsmUkswyZwA1g1vvTX2x-64" value="1" style="text;html=1;align=center;verticalAlign=middle;resizable=0;points=[];autosize=1;strokeColor=none;fillColor=none;" parent="1" vertex="1">
          <mxGeometry x="1158" y="299" width="39" height="26" as="geometry" />
        </mxCell>
        <mxCell id="lsmUkswyZwA1g1vvTX2x-69" value="1" style="text;html=1;align=center;verticalAlign=middle;resizable=0;points=[];autosize=1;strokeColor=none;fillColor=none;" parent="1" vertex="1">
          <mxGeometry x="1525.5" y="1003" width="39" height="26" as="geometry" />
        </mxCell>
        <mxCell id="lsmUkswyZwA1g1vvTX2x-70" value="1" style="text;html=1;align=center;verticalAlign=middle;resizable=0;points=[];autosize=1;strokeColor=none;fillColor=none;" parent="1" vertex="1">
          <mxGeometry x="1509" y="923" width="39" height="26" as="geometry" />
        </mxCell>
        <mxCell id="lsmUkswyZwA1g1vvTX2x-71" value="1" style="text;html=1;align=center;verticalAlign=middle;resizable=0;points=[];autosize=1;strokeColor=none;fillColor=none;" parent="1" vertex="1">
          <mxGeometry x="1080" y="1404" width="39" height="26" as="geometry" />
        </mxCell>
        <mxCell id="lsmUkswyZwA1g1vvTX2x-72" value="1" style="text;html=1;align=center;verticalAlign=middle;resizable=0;points=[];autosize=1;strokeColor=none;fillColor=none;" parent="1" vertex="1">
          <mxGeometry x="950" y="1404" width="39" height="26" as="geometry" />
        </mxCell>
        <mxCell id="lsmUkswyZwA1g1vvTX2x-73" value="N" style="text;html=1;align=center;verticalAlign=middle;resizable=0;points=[];autosize=1;strokeColor=none;fillColor=none;" parent="1" vertex="1">
          <mxGeometry x="1015" y="1300" width="39" height="26" as="geometry" />
        </mxCell>
        <mxCell id="lsmUkswyZwA1g1vvTX2x-74" value="M" style="text;html=1;align=center;verticalAlign=middle;resizable=0;points=[];autosize=1;strokeColor=none;fillColor=none;" parent="1" vertex="1">
          <mxGeometry x="1171" y="1326" width="39" height="26" as="geometry" />
        </mxCell>
        <mxCell id="lsmUkswyZwA1g1vvTX2x-75" value="" style="shape=link;html=1;rounded=0;exitX=1;exitY=0.75;exitDx=0;exitDy=0;entryX=0;entryY=0.5;entryDx=0;entryDy=0;" parent="1" source="VUkm5OOeQnTbvhqiQd82-44" target="VUkm5OOeQnTbvhqiQd82-33" edge="1">
          <mxGeometry width="100" relative="1" as="geometry">
            <mxPoint x="348" y="986" as="sourcePoint" />
            <mxPoint x="269" y="1076" as="targetPoint" />
          </mxGeometry>
        </mxCell>
        <mxCell id="lsmUkswyZwA1g1vvTX2x-76" value="" style="shape=link;html=1;rounded=0;exitX=0.5;exitY=1;exitDx=0;exitDy=0;entryX=0.5;entryY=0;entryDx=0;entryDy=0;" parent="1" source="UmN1ryKaJYNSOMEjlBWB-15" target="UmN1ryKaJYNSOMEjlBWB-62" edge="1">
          <mxGeometry width="100" relative="1" as="geometry">
            <mxPoint x="1084" y="325" as="sourcePoint" />
            <mxPoint x="1005" y="415" as="targetPoint" />
          </mxGeometry>
        </mxCell>
        <mxCell id="lsmUkswyZwA1g1vvTX2x-77" value="N" style="text;html=1;align=center;verticalAlign=middle;resizable=0;points=[];autosize=1;strokeColor=none;fillColor=none;" parent="1" vertex="1">
          <mxGeometry x="1665" y="806" width="39" height="26" as="geometry" />
        </mxCell>
        <mxCell id="lsmUkswyZwA1g1vvTX2x-78" value="1" style="text;html=1;align=center;verticalAlign=middle;resizable=0;points=[];autosize=1;strokeColor=none;fillColor=none;" parent="1" vertex="1">
          <mxGeometry x="1574" y="754" width="39" height="26" as="geometry" />
        </mxCell>
        <mxCell id="lsmUkswyZwA1g1vvTX2x-79" value="&lt;span style=&quot;border-bottom: 1px dotted&quot;&gt;Medical-Record-ID&lt;/span&gt;" style="ellipse;whiteSpace=wrap;html=1;align=center;" parent="1" vertex="1">
          <mxGeometry x="1752" y="430" width="108.63" height="40" as="geometry" />
        </mxCell>
        <mxCell id="l3VvjnMhBTpfvbGfhZ33-52" value="Medication_Name" style="ellipse;whiteSpace=wrap;html=1;align=center;" parent="1" vertex="1">
          <mxGeometry x="1119" y="1241" width="100" height="40" as="geometry" />
        </mxCell>
        <mxCell id="l3VvjnMhBTpfvbGfhZ33-53" value="" style="endArrow=none;html=1;rounded=0;entryX=0.5;entryY=0;entryDx=0;entryDy=0;exitX=1;exitY=1;exitDx=0;exitDy=0;" parent="1" source="l3VvjnMhBTpfvbGfhZ33-58" target="l3VvjnMhBTpfvbGfhZ33-52" edge="1">
          <mxGeometry width="50" height="50" relative="1" as="geometry">
            <mxPoint x="1432" y="1112" as="sourcePoint" />
            <mxPoint x="1500" y="1255" as="targetPoint" />
          </mxGeometry>
        </mxCell>
        <mxCell id="l3VvjnMhBTpfvbGfhZ33-54" value="Gets" style="shape=rhombus;perimeter=rhombusPerimeter;whiteSpace=wrap;html=1;align=center;" parent="1" vertex="1">
          <mxGeometry x="890" y="668" width="120" height="60" as="geometry" />
        </mxCell>
        <mxCell id="l3VvjnMhBTpfvbGfhZ33-55" value="" style="endArrow=none;html=1;rounded=0;exitX=0.5;exitY=1;exitDx=0;exitDy=0;entryX=1;entryY=0.5;entryDx=0;entryDy=0;" parent="1" source="UmN1ryKaJYNSOMEjlBWB-14" target="l3VvjnMhBTpfvbGfhZ33-54" edge="1">
          <mxGeometry relative="1" as="geometry">
            <mxPoint x="1173" y="533" as="sourcePoint" />
            <mxPoint x="1183" y="673" as="targetPoint" />
            <Array as="points" />
          </mxGeometry>
        </mxCell>
        <mxCell id="l3VvjnMhBTpfvbGfhZ33-57" value="" style="endArrow=none;html=1;rounded=0;exitX=0;exitY=1;exitDx=0;exitDy=0;entryX=1;entryY=0.5;entryDx=0;entryDy=0;" parent="1" source="fGyipN-ep7-rFaa1frUd-1" target="l3VvjnMhBTpfvbGfhZ33-58" edge="1">
          <mxGeometry relative="1" as="geometry">
            <mxPoint x="1311" y="1077" as="sourcePoint" />
            <mxPoint x="1105" y="1222" as="targetPoint" />
            <Array as="points" />
          </mxGeometry>
        </mxCell>
        <mxCell id="l3VvjnMhBTpfvbGfhZ33-58" value="Specifies" style="shape=rhombus;perimeter=rhombusPerimeter;whiteSpace=wrap;html=1;align=center;" parent="1" vertex="1">
          <mxGeometry x="1020" y="1161" width="120" height="60" as="geometry" />
        </mxCell>
        <mxCell id="l3VvjnMhBTpfvbGfhZ33-66" value="Supplier_Information" style="ellipse;whiteSpace=wrap;html=1;align=center;" parent="1" vertex="1">
          <mxGeometry x="830" y="1523" width="120" height="40" as="geometry" />
        </mxCell>
        <mxCell id="l3VvjnMhBTpfvbGfhZ33-67" value="Stock_Level" style="ellipse;whiteSpace=wrap;html=1;align=center;" parent="1" vertex="1">
          <mxGeometry x="760" y="1584" width="100" height="40" as="geometry" />
        </mxCell>
        <mxCell id="l3VvjnMhBTpfvbGfhZ33-68" value="Available_Medication" style="ellipse;whiteSpace=wrap;html=1;align=center;" parent="1" vertex="1">
          <mxGeometry x="640" y="1530" width="140" height="40" as="geometry" />
        </mxCell>
        <mxCell id="l3VvjnMhBTpfvbGfhZ33-73" value="" style="endArrow=none;html=1;rounded=0;exitX=0.5;exitY=0;exitDx=0;exitDy=0;entryX=0.5;entryY=1;entryDx=0;entryDy=0;" parent="1" source="l3VvjnMhBTpfvbGfhZ33-68" target="VUkm5OOeQnTbvhqiQd82-37" edge="1">
          <mxGeometry relative="1" as="geometry">
            <mxPoint x="1006" y="1258" as="sourcePoint" />
            <mxPoint x="793" y="1469" as="targetPoint" />
            <Array as="points" />
          </mxGeometry>
        </mxCell>
        <mxCell id="l3VvjnMhBTpfvbGfhZ33-74" value="" style="endArrow=none;html=1;rounded=0;entryX=0.5;entryY=0;entryDx=0;entryDy=0;exitX=0.5;exitY=1;exitDx=0;exitDy=0;" parent="1" source="VUkm5OOeQnTbvhqiQd82-37" target="l3VvjnMhBTpfvbGfhZ33-67" edge="1">
          <mxGeometry relative="1" as="geometry">
            <mxPoint x="806" y="1495" as="sourcePoint" />
            <mxPoint x="899" y="1367" as="targetPoint" />
            <Array as="points" />
          </mxGeometry>
        </mxCell>
        <mxCell id="l3VvjnMhBTpfvbGfhZ33-75" value="" style="endArrow=none;html=1;rounded=0;exitX=0.5;exitY=0;exitDx=0;exitDy=0;entryX=0.5;entryY=1;entryDx=0;entryDy=0;" parent="1" source="l3VvjnMhBTpfvbGfhZ33-66" target="VUkm5OOeQnTbvhqiQd82-37" edge="1">
          <mxGeometry relative="1" as="geometry">
            <mxPoint x="1032" y="1284" as="sourcePoint" />
            <mxPoint x="923" y="1508" as="targetPoint" />
            <Array as="points" />
          </mxGeometry>
        </mxCell>
        <mxCell id="l3VvjnMhBTpfvbGfhZ33-77" value="Receives" style="shape=rhombus;perimeter=rhombusPerimeter;whiteSpace=wrap;html=1;align=center;" parent="1" vertex="1">
          <mxGeometry x="1221" y="741" width="120" height="60" as="geometry" />
        </mxCell>
        <mxCell id="l3VvjnMhBTpfvbGfhZ33-78" value="" style="endArrow=none;html=1;rounded=0;exitX=0.5;exitY=0;exitDx=0;exitDy=0;entryX=0.5;entryY=1;entryDx=0;entryDy=0;" parent="1" source="fGyipN-ep7-rFaa1frUd-1" target="l3VvjnMhBTpfvbGfhZ33-77" edge="1">
          <mxGeometry relative="1" as="geometry">
            <mxPoint x="1173" y="533" as="sourcePoint" />
            <mxPoint x="1294" y="754" as="targetPoint" />
          </mxGeometry>
        </mxCell>
        <mxCell id="l3VvjnMhBTpfvbGfhZ33-84" value="" style="endArrow=none;html=1;rounded=0;exitX=1;exitY=0.5;exitDx=0;exitDy=0;entryX=0;entryY=0;entryDx=0;entryDy=0;" parent="1" source="qRnIFf2FwN7FLmeCjPiC-4" target="umu3U105oiYe72CDvPgY-69" edge="1">
          <mxGeometry relative="1" as="geometry">
            <mxPoint x="1090" y="1432" as="sourcePoint" />
            <mxPoint x="1157" y="1462" as="targetPoint" />
            <Array as="points" />
          </mxGeometry>
        </mxCell>
        <mxCell id="l3VvjnMhBTpfvbGfhZ33-86" value="Pharmacy_ID" style="ellipse;whiteSpace=wrap;html=1;align=center;fontStyle=4;" parent="1" vertex="1">
          <mxGeometry x="990" y="1559" width="100" height="40" as="geometry" />
        </mxCell>
        <mxCell id="l3VvjnMhBTpfvbGfhZ33-88" value="Pharmacy_Name" style="ellipse;whiteSpace=wrap;html=1;align=center;" parent="1" vertex="1">
          <mxGeometry x="1005" y="1624" width="100" height="40" as="geometry" />
        </mxCell>
        <mxCell id="l3VvjnMhBTpfvbGfhZ33-90" value="Pharmacy_Address" style="ellipse;whiteSpace=wrap;html=1;align=center;" parent="1" vertex="1">
          <mxGeometry x="1235" y="1617" width="117" height="40" as="geometry" />
        </mxCell>
        <mxCell id="l3VvjnMhBTpfvbGfhZ33-91" value="Business_Phone_Number" style="ellipse;whiteSpace=wrap;html=1;align=center;" parent="1" vertex="1">
          <mxGeometry x="1330" y="1545" width="149" height="54" as="geometry" />
        </mxCell>
        <mxCell id="l3VvjnMhBTpfvbGfhZ33-92" value="" style="endArrow=none;html=1;rounded=0;entryX=0.25;entryY=1;entryDx=0;entryDy=0;exitX=0.5;exitY=0;exitDx=0;exitDy=0;" parent="1" source="l3VvjnMhBTpfvbGfhZ33-86" target="umu3U105oiYe72CDvPgY-69" edge="1">
          <mxGeometry relative="1" as="geometry">
            <mxPoint x="1133" y="1395" as="sourcePoint" />
            <mxPoint x="1248" y="1455" as="targetPoint" />
            <Array as="points" />
          </mxGeometry>
        </mxCell>
        <mxCell id="l3VvjnMhBTpfvbGfhZ33-93" value="" style="endArrow=none;html=1;rounded=0;entryX=0.25;entryY=1;entryDx=0;entryDy=0;exitX=0.5;exitY=0;exitDx=0;exitDy=0;" parent="1" source="l3VvjnMhBTpfvbGfhZ33-88" target="umu3U105oiYe72CDvPgY-69" edge="1">
          <mxGeometry relative="1" as="geometry">
            <mxPoint x="1113" y="1561" as="sourcePoint" />
            <mxPoint x="1248" y="1495" as="targetPoint" />
            <Array as="points" />
          </mxGeometry>
        </mxCell>
        <mxCell id="l3VvjnMhBTpfvbGfhZ33-94" value="" style="endArrow=none;html=1;rounded=0;entryX=0.75;entryY=1;entryDx=0;entryDy=0;exitX=0.5;exitY=0;exitDx=0;exitDy=0;" parent="1" source="l3VvjnMhBTpfvbGfhZ33-90" target="umu3U105oiYe72CDvPgY-69" edge="1">
          <mxGeometry relative="1" as="geometry">
            <mxPoint x="1126" y="1574" as="sourcePoint" />
            <mxPoint x="1261" y="1508" as="targetPoint" />
            <Array as="points" />
          </mxGeometry>
        </mxCell>
        <mxCell id="l3VvjnMhBTpfvbGfhZ33-95" value="" style="endArrow=none;html=1;rounded=0;exitX=0.5;exitY=0;exitDx=0;exitDy=0;entryX=0.75;entryY=1;entryDx=0;entryDy=0;" parent="1" source="l3VvjnMhBTpfvbGfhZ33-91" target="umu3U105oiYe72CDvPgY-69" edge="1">
          <mxGeometry relative="1" as="geometry">
            <mxPoint x="1139" y="1587" as="sourcePoint" />
            <mxPoint x="1287" y="1482" as="targetPoint" />
            <Array as="points" />
          </mxGeometry>
        </mxCell>
        <mxCell id="l3VvjnMhBTpfvbGfhZ33-106" value="" style="endArrow=none;html=1;rounded=0;exitX=0.5;exitY=1;exitDx=0;exitDy=0;entryX=0.438;entryY=-0.05;entryDx=0;entryDy=0;entryPerimeter=0;" parent="1" source="VUkm5OOeQnTbvhqiQd82-7" target="lsmUkswyZwA1g1vvTX2x-1" edge="1">
          <mxGeometry relative="1" as="geometry">
            <mxPoint x="1604" y="1482" as="sourcePoint" />
            <mxPoint x="1700" y="1664" as="targetPoint" />
            <Array as="points" />
          </mxGeometry>
        </mxCell>
        <mxCell id="l3VvjnMhBTpfvbGfhZ33-107" value="" style="endArrow=none;html=1;rounded=0;exitX=0.5;exitY=1;exitDx=0;exitDy=0;entryX=0.5;entryY=0;entryDx=0;entryDy=0;" parent="1" source="VUkm5OOeQnTbvhqiQd82-7" target="VUkm5OOeQnTbvhqiQd82-13" edge="1">
          <mxGeometry relative="1" as="geometry">
            <mxPoint x="1629" y="1482" as="sourcePoint" />
            <mxPoint x="1555" y="1599" as="targetPoint" />
            <Array as="points" />
          </mxGeometry>
        </mxCell>
        <mxCell id="l3VvjnMhBTpfvbGfhZ33-108" value="" style="endArrow=none;html=1;rounded=0;exitX=0.5;exitY=1;exitDx=0;exitDy=0;entryX=0.5;entryY=0;entryDx=0;entryDy=0;" parent="1" source="VUkm5OOeQnTbvhqiQd82-7" target="lsmUkswyZwA1g1vvTX2x-2" edge="1">
          <mxGeometry relative="1" as="geometry">
            <mxPoint x="1654" y="1482" as="sourcePoint" />
            <mxPoint x="1595" y="1679" as="targetPoint" />
            <Array as="points" />
          </mxGeometry>
        </mxCell>
        <mxCell id="l3VvjnMhBTpfvbGfhZ33-111" value="" style="endArrow=none;html=1;rounded=0;exitX=0;exitY=0.5;exitDx=0;exitDy=0;entryX=1;entryY=0.5;entryDx=0;entryDy=0;" parent="1" source="VUkm5OOeQnTbvhqiQd82-16" target="umu3U105oiYe72CDvPgY-69" edge="1">
          <mxGeometry relative="1" as="geometry">
            <mxPoint x="1373.5" y="1462" as="sourcePoint" />
            <mxPoint x="1298" y="1495" as="targetPoint" />
            <Array as="points" />
          </mxGeometry>
        </mxCell>
        <mxCell id="l3VvjnMhBTpfvbGfhZ33-113" value="Working_Hours" style="ellipse;whiteSpace=wrap;html=1;align=center;" parent="1" vertex="1">
          <mxGeometry x="221" y="360" width="100" height="40" as="geometry" />
        </mxCell>
        <mxCell id="l3VvjnMhBTpfvbGfhZ33-114" value="" style="endArrow=none;html=1;rounded=0;exitX=0;exitY=0;exitDx=0;exitDy=0;entryX=1;entryY=0.5;entryDx=0;entryDy=0;" parent="1" source="UmN1ryKaJYNSOMEjlBWB-13" target="l3VvjnMhBTpfvbGfhZ33-113" edge="1">
          <mxGeometry relative="1" as="geometry">
            <mxPoint x="714" y="493" as="sourcePoint" />
            <mxPoint x="519" y="394" as="targetPoint" />
          </mxGeometry>
        </mxCell>
        <mxCell id="l3VvjnMhBTpfvbGfhZ33-118" value="HealthCare_Professional_ID" style="ellipse;whiteSpace=wrap;html=1;align=center;" parent="1" vertex="1">
          <mxGeometry x="1420" y="400" width="156.5" height="54" as="geometry" />
        </mxCell>
        <mxCell id="l3VvjnMhBTpfvbGfhZ33-124" value="Itemized_Cost" style="ellipse;whiteSpace=wrap;html=1;align=center;" parent="1" vertex="1">
          <mxGeometry x="1933.5" y="1067" width="100" height="40" as="geometry" />
        </mxCell>
        <mxCell id="l3VvjnMhBTpfvbGfhZ33-125" value="" style="endArrow=none;html=1;rounded=0;exitX=0;exitY=0.5;exitDx=0;exitDy=0;entryX=0.5;entryY=0;entryDx=0;entryDy=0;" parent="1" source="l3VvjnMhBTpfvbGfhZ33-124" target="umu3U105oiYe72CDvPgY-129" edge="1">
          <mxGeometry relative="1" as="geometry">
            <mxPoint x="1913" y="1079" as="sourcePoint" />
            <mxPoint x="1822" y="1170" as="targetPoint" />
          </mxGeometry>
        </mxCell>
        <mxCell id="l3VvjnMhBTpfvbGfhZ33-138" value="Patient_Treatments" style="ellipse;whiteSpace=wrap;html=1;align=center;" parent="1" vertex="1">
          <mxGeometry x="1933.5" y="948" width="127" height="40" as="geometry" />
        </mxCell>
        <mxCell id="l3VvjnMhBTpfvbGfhZ33-139" value="Procedures" style="ellipse;whiteSpace=wrap;html=1;align=center;" parent="1" vertex="1">
          <mxGeometry x="2106" y="1063" width="100" height="40" as="geometry" />
        </mxCell>
        <mxCell id="l3VvjnMhBTpfvbGfhZ33-140" value="Hospital_Stays" style="ellipse;whiteSpace=wrap;html=1;align=center;" parent="1" vertex="1">
          <mxGeometry x="2056" y="988" width="100" height="40" as="geometry" />
        </mxCell>
        <mxCell id="l3VvjnMhBTpfvbGfhZ33-141" value="" style="endArrow=none;html=1;rounded=0;exitX=1;exitY=0.5;exitDx=0;exitDy=0;entryX=0;entryY=0.5;entryDx=0;entryDy=0;" parent="1" source="l3VvjnMhBTpfvbGfhZ33-124" target="l3VvjnMhBTpfvbGfhZ33-139" edge="1">
          <mxGeometry relative="1" as="geometry">
            <mxPoint x="1893" y="1079" as="sourcePoint" />
            <mxPoint x="1822" y="1170" as="targetPoint" />
          </mxGeometry>
        </mxCell>
        <mxCell id="l3VvjnMhBTpfvbGfhZ33-142" value="" style="endArrow=none;html=1;rounded=0;exitX=0.5;exitY=0;exitDx=0;exitDy=0;entryX=0.5;entryY=1;entryDx=0;entryDy=0;" parent="1" source="l3VvjnMhBTpfvbGfhZ33-124" target="l3VvjnMhBTpfvbGfhZ33-140" edge="1">
          <mxGeometry relative="1" as="geometry">
            <mxPoint x="1906" y="1092" as="sourcePoint" />
            <mxPoint x="2106" y="1053" as="targetPoint" />
          </mxGeometry>
        </mxCell>
        <mxCell id="l3VvjnMhBTpfvbGfhZ33-143" value="" style="endArrow=none;html=1;rounded=0;exitX=0.5;exitY=0;exitDx=0;exitDy=0;entryX=0.5;entryY=1;entryDx=0;entryDy=0;" parent="1" source="l3VvjnMhBTpfvbGfhZ33-124" target="l3VvjnMhBTpfvbGfhZ33-138" edge="1">
          <mxGeometry relative="1" as="geometry">
            <mxPoint x="1919" y="1105" as="sourcePoint" />
            <mxPoint x="1848" y="1196" as="targetPoint" />
          </mxGeometry>
        </mxCell>
        <mxCell id="l3VvjnMhBTpfvbGfhZ33-146" value="Total_Cost" style="ellipse;whiteSpace=wrap;html=1;align=center;dashed=1;" parent="1" vertex="1">
          <mxGeometry x="1967" y="1119" width="100" height="40" as="geometry" />
        </mxCell>
        <mxCell id="l3VvjnMhBTpfvbGfhZ33-151" value="Insurance_ID" style="ellipse;whiteSpace=wrap;html=1;align=center;fontStyle=4;" parent="1" vertex="1">
          <mxGeometry x="2072.25" y="1639" width="100" height="40" as="geometry" />
        </mxCell>
        <mxCell id="l3VvjnMhBTpfvbGfhZ33-157" value="" style="endArrow=none;html=1;rounded=0;entryX=0.5;entryY=1;entryDx=0;entryDy=0;exitX=0.5;exitY=0;exitDx=0;exitDy=0;" parent="1" source="VUkm5OOeQnTbvhqiQd82-5" target="umu3U105oiYe72CDvPgY-69" edge="1">
          <mxGeometry relative="1" as="geometry">
            <mxPoint x="1140" y="1664" as="sourcePoint" />
            <mxPoint x="1248" y="1495" as="targetPoint" />
            <Array as="points" />
          </mxGeometry>
        </mxCell>
        <mxCell id="VUkm5OOeQnTbvhqiQd82-5" value="Working_Hours" style="shape=rhombus;perimeter=rhombusPerimeter;whiteSpace=wrap;html=1;align=center;" parent="1" vertex="1">
          <mxGeometry x="1070" y="1692" width="120" height="60" as="geometry" />
        </mxCell>
        <mxCell id="VUkm5OOeQnTbvhqiQd82-6" value="Schedule" style="whiteSpace=wrap;html=1;align=center;" parent="1" vertex="1">
          <mxGeometry x="1225.5" y="1781" width="100" height="40" as="geometry" />
        </mxCell>
        <mxCell id="VUkm5OOeQnTbvhqiQd82-7" value="Comments" style="shape=ext;margin=3;double=1;whiteSpace=wrap;html=1;align=center;" parent="1" vertex="1">
          <mxGeometry x="1585" y="1442" width="100" height="40" as="geometry" />
        </mxCell>
        <mxCell id="VUkm5OOeQnTbvhqiQd82-13" value="Patient_ID" style="ellipse;whiteSpace=wrap;html=1;align=center;" parent="1" vertex="1">
          <mxGeometry x="1510.5" y="1577" width="100" height="40" as="geometry" />
        </mxCell>
        <mxCell id="VUkm5OOeQnTbvhqiQd82-14" value="Pharmacy_ID" style="ellipse;whiteSpace=wrap;html=1;align=center;fontStyle=4;" parent="1" vertex="1">
          <mxGeometry x="1703" y="1577" width="117" height="40" as="geometry" />
        </mxCell>
        <mxCell id="VUkm5OOeQnTbvhqiQd82-15" value="" style="endArrow=none;html=1;rounded=0;exitX=0.5;exitY=1;exitDx=0;exitDy=0;entryX=0.5;entryY=0;entryDx=0;entryDy=0;" parent="1" source="VUkm5OOeQnTbvhqiQd82-7" target="VUkm5OOeQnTbvhqiQd82-14" edge="1">
          <mxGeometry relative="1" as="geometry">
            <mxPoint x="1648" y="1495" as="sourcePoint" />
            <mxPoint x="1701" y="1652" as="targetPoint" />
            <Array as="points" />
          </mxGeometry>
        </mxCell>
        <mxCell id="VUkm5OOeQnTbvhqiQd82-16" value="Receives" style="shape=rhombus;double=1;perimeter=rhombusPerimeter;whiteSpace=wrap;html=1;align=center;" parent="1" vertex="1">
          <mxGeometry x="1365" y="1430" width="120" height="60" as="geometry" />
        </mxCell>
        <mxCell id="VUkm5OOeQnTbvhqiQd82-17" value="" style="endArrow=none;html=1;rounded=0;entryX=1;entryY=0.5;entryDx=0;entryDy=0;exitX=0;exitY=0.5;exitDx=0;exitDy=0;" parent="1" source="VUkm5OOeQnTbvhqiQd82-6" target="VUkm5OOeQnTbvhqiQd82-5" edge="1">
          <mxGeometry relative="1" as="geometry">
            <mxPoint x="1143" y="1705" as="sourcePoint" />
            <mxPoint x="1273" y="1495" as="targetPoint" />
            <Array as="points" />
          </mxGeometry>
        </mxCell>
        <mxCell id="VUkm5OOeQnTbvhqiQd82-18" value="" style="endArrow=none;html=1;rounded=0;entryX=1;entryY=0.25;entryDx=0;entryDy=0;exitX=0;exitY=0.5;exitDx=0;exitDy=0;" parent="1" source="VUkm5OOeQnTbvhqiQd82-25" target="VUkm5OOeQnTbvhqiQd82-6" edge="1">
          <mxGeometry relative="1" as="geometry">
            <mxPoint x="1417" y="1742" as="sourcePoint" />
            <mxPoint x="1203" y="1735" as="targetPoint" />
            <Array as="points" />
          </mxGeometry>
        </mxCell>
        <mxCell id="VUkm5OOeQnTbvhqiQd82-19" value="" style="endArrow=none;html=1;rounded=0;entryX=1;entryY=0.75;entryDx=0;entryDy=0;exitX=0;exitY=0.5;exitDx=0;exitDy=0;" parent="1" source="VUkm5OOeQnTbvhqiQd82-26" target="VUkm5OOeQnTbvhqiQd82-6" edge="1">
          <mxGeometry relative="1" as="geometry">
            <mxPoint x="1252" y="1827" as="sourcePoint" />
            <mxPoint x="1216" y="1748" as="targetPoint" />
            <Array as="points" />
          </mxGeometry>
        </mxCell>
        <mxCell id="VUkm5OOeQnTbvhqiQd82-20" value="" style="endArrow=none;html=1;rounded=0;entryX=1;entryY=0.5;entryDx=0;entryDy=0;exitX=0;exitY=0.5;exitDx=0;exitDy=0;" parent="1" source="VUkm5OOeQnTbvhqiQd82-27" target="VUkm5OOeQnTbvhqiQd82-6" edge="1">
          <mxGeometry relative="1" as="geometry">
            <mxPoint x="1265" y="1840" as="sourcePoint" />
            <mxPoint x="1229" y="1761" as="targetPoint" />
            <Array as="points" />
          </mxGeometry>
        </mxCell>
        <mxCell id="VUkm5OOeQnTbvhqiQd82-25" value="Day" style="ellipse;whiteSpace=wrap;html=1;align=center;fontStyle=4;" parent="1" vertex="1">
          <mxGeometry x="1410.5" y="1718" width="100" height="40" as="geometry" />
        </mxCell>
        <mxCell id="VUkm5OOeQnTbvhqiQd82-26" value="Closing_Time" style="ellipse;whiteSpace=wrap;html=1;align=center;" parent="1" vertex="1">
          <mxGeometry x="1410" y="1846" width="100" height="40" as="geometry" />
        </mxCell>
        <mxCell id="VUkm5OOeQnTbvhqiQd82-27" value="Opening_Time" style="ellipse;whiteSpace=wrap;html=1;align=center;" parent="1" vertex="1">
          <mxGeometry x="1405" y="1781" width="100" height="40" as="geometry" />
        </mxCell>
        <mxCell id="VUkm5OOeQnTbvhqiQd82-32" value="" style="endArrow=none;html=1;rounded=0;entryX=0;entryY=0.5;entryDx=0;entryDy=0;exitX=1;exitY=0.5;exitDx=0;exitDy=0;" parent="1" source="VUkm5OOeQnTbvhqiQd82-44" target="l3VvjnMhBTpfvbGfhZ33-58" edge="1">
          <mxGeometry relative="1" as="geometry">
            <mxPoint x="858" y="1183" as="sourcePoint" />
            <mxPoint x="1133" y="1235" as="targetPoint" />
            <Array as="points" />
          </mxGeometry>
        </mxCell>
        <mxCell id="VUkm5OOeQnTbvhqiQd82-33" value="Sell" style="shape=rhombus;perimeter=rhombusPerimeter;whiteSpace=wrap;html=1;align=center;" parent="1" vertex="1">
          <mxGeometry x="1050" y="1308.25" width="120" height="60" as="geometry" />
        </mxCell>
        <mxCell id="VUkm5OOeQnTbvhqiQd82-34" value="" style="endArrow=none;html=1;rounded=0;exitX=1;exitY=0.5;exitDx=0;exitDy=0;entryX=0.5;entryY=0;entryDx=0;entryDy=0;" parent="1" source="VUkm5OOeQnTbvhqiQd82-33" target="umu3U105oiYe72CDvPgY-69" edge="1">
          <mxGeometry relative="1" as="geometry">
            <mxPoint x="1372" y="1112" as="sourcePoint" />
            <mxPoint x="1103" y="1204" as="targetPoint" />
            <Array as="points" />
          </mxGeometry>
        </mxCell>
        <mxCell id="VUkm5OOeQnTbvhqiQd82-37" value="Inventory_System" style="shape=ext;margin=3;double=1;whiteSpace=wrap;html=1;align=center;" parent="1" vertex="1">
          <mxGeometry x="728" y="1412" width="130" height="44" as="geometry" />
        </mxCell>
        <mxCell id="VUkm5OOeQnTbvhqiQd82-40" value="" style="endArrow=none;html=1;rounded=0;exitX=1;exitY=0.5;exitDx=0;exitDy=0;entryX=0.5;entryY=1;entryDx=0;entryDy=0;" parent="1" source="VUkm5OOeQnTbvhqiQd82-41" target="VUkm5OOeQnTbvhqiQd82-37" edge="1">
          <mxGeometry relative="1" as="geometry">
            <mxPoint x="618" y="1510" as="sourcePoint" />
            <mxPoint x="806" y="1469" as="targetPoint" />
            <Array as="points" />
          </mxGeometry>
        </mxCell>
        <mxCell id="VUkm5OOeQnTbvhqiQd82-41" value="Pharmacy_ID" style="ellipse;whiteSpace=wrap;html=1;align=center;" parent="1" vertex="1">
          <mxGeometry x="530" y="1510" width="100" height="40" as="geometry" />
        </mxCell>
        <mxCell id="VUkm5OOeQnTbvhqiQd82-43" value="" style="endArrow=none;html=1;rounded=0;exitX=1;exitY=0;exitDx=0;exitDy=0;entryX=0;entryY=1;entryDx=0;entryDy=0;" parent="1" source="62xSQ3_A2AYxzG_R-7Ag-6" target="VUkm5OOeQnTbvhqiQd82-33" edge="1">
          <mxGeometry relative="1" as="geometry">
            <mxPoint x="670" y="1348.25" as="sourcePoint" />
            <mxPoint x="754" y="1339" as="targetPoint" />
            <Array as="points" />
          </mxGeometry>
        </mxCell>
        <mxCell id="VUkm5OOeQnTbvhqiQd82-44" value="Medication" style="shape=ext;margin=3;double=1;whiteSpace=wrap;html=1;align=center;" parent="1" vertex="1">
          <mxGeometry x="760" y="1248" width="100" height="40" as="geometry" />
        </mxCell>
        <mxCell id="VUkm5OOeQnTbvhqiQd82-45" value="Pharnacy_ID" style="ellipse;whiteSpace=wrap;html=1;align=center;" parent="1" vertex="1">
          <mxGeometry x="614" y="1248" width="100" height="40" as="geometry" />
        </mxCell>
        <mxCell id="VUkm5OOeQnTbvhqiQd82-46" value="" style="endArrow=none;html=1;rounded=0;exitX=0;exitY=0.5;exitDx=0;exitDy=0;entryX=1;entryY=0.5;entryDx=0;entryDy=0;" parent="1" source="VUkm5OOeQnTbvhqiQd82-44" target="VUkm5OOeQnTbvhqiQd82-45" edge="1">
          <mxGeometry relative="1" as="geometry">
            <mxPoint x="683" y="1301" as="sourcePoint" />
            <mxPoint x="771" y="1281" as="targetPoint" />
            <Array as="points" />
          </mxGeometry>
        </mxCell>
        <mxCell id="xj5izY7rxrqVxDNS5dNn-2" value="Appointment_ID" style="ellipse;whiteSpace=wrap;html=1;align=center;fontStyle=4;" parent="1" vertex="1">
          <mxGeometry x="840" y="603.7099999999999" width="100" height="40" as="geometry" />
        </mxCell>
        <mxCell id="xj5izY7rxrqVxDNS5dNn-9" value="Training_Center" style="whiteSpace=wrap;html=1;align=center;" parent="1" vertex="1">
          <mxGeometry x="206" y="1181" width="100" height="40" as="geometry" />
        </mxCell>
        <mxCell id="xj5izY7rxrqVxDNS5dNn-10" value="Offer" style="shape=rhombus;perimeter=rhombusPerimeter;whiteSpace=wrap;html=1;align=center;" parent="1" vertex="1">
          <mxGeometry x="196" y="1063" width="120" height="60" as="geometry" />
        </mxCell>
        <mxCell id="xj5izY7rxrqVxDNS5dNn-11" value="" style="endArrow=none;html=1;rounded=0;exitX=0.5;exitY=1;exitDx=0;exitDy=0;entryX=0.5;entryY=0;entryDx=0;entryDy=0;" parent="1" source="xj5izY7rxrqVxDNS5dNn-10" target="xj5izY7rxrqVxDNS5dNn-9" edge="1">
          <mxGeometry relative="1" as="geometry">
            <mxPoint x="201" y="966" as="sourcePoint" />
            <mxPoint x="323" y="966" as="targetPoint" />
          </mxGeometry>
        </mxCell>
        <mxCell id="xj5izY7rxrqVxDNS5dNn-15" value="O" style="ellipse;whiteSpace=wrap;html=1;aspect=fixed;" parent="1" vertex="1">
          <mxGeometry x="68" y="533" width="40" height="40" as="geometry" />
        </mxCell>
        <mxCell id="xj5izY7rxrqVxDNS5dNn-17" value="" style="endArrow=none;html=1;rounded=0;exitX=0;exitY=0.5;exitDx=0;exitDy=0;entryX=0.5;entryY=0;entryDx=0;entryDy=0;" parent="1" source="xj5izY7rxrqVxDNS5dNn-20" target="xj5izY7rxrqVxDNS5dNn-15" edge="1">
          <mxGeometry relative="1" as="geometry">
            <mxPoint x="657" y="516" as="sourcePoint" />
            <mxPoint x="363" y="513" as="targetPoint" />
          </mxGeometry>
        </mxCell>
        <mxCell id="xj5izY7rxrqVxDNS5dNn-18" value="" style="endArrow=none;html=1;rounded=0;exitX=0.25;exitY=0;exitDx=0;exitDy=0;entryX=1;entryY=0.5;entryDx=0;entryDy=0;" parent="1" source="UmN1ryKaJYNSOMEjlBWB-129" target="xj5izY7rxrqVxDNS5dNn-15" edge="1">
          <mxGeometry relative="1" as="geometry">
            <mxPoint x="657" y="527" as="sourcePoint" />
            <mxPoint x="423" y="553" as="targetPoint" />
          </mxGeometry>
        </mxCell>
        <mxCell id="xj5izY7rxrqVxDNS5dNn-19" value="" style="endArrow=none;html=1;rounded=0;exitX=0.5;exitY=0;exitDx=0;exitDy=0;entryX=0;entryY=0.5;entryDx=0;entryDy=0;" parent="1" source="UmN1ryKaJYNSOMEjlBWB-107" target="xj5izY7rxrqVxDNS5dNn-15" edge="1">
          <mxGeometry relative="1" as="geometry">
            <mxPoint x="670" y="540" as="sourcePoint" />
            <mxPoint x="436" y="566" as="targetPoint" />
          </mxGeometry>
        </mxCell>
        <mxCell id="xj5izY7rxrqVxDNS5dNn-20" value="D/A" style="whiteSpace=wrap;html=1;align=center;" parent="1" vertex="1">
          <mxGeometry x="325" y="533" width="100" height="40" as="geometry" />
        </mxCell>
        <mxCell id="xj5izY7rxrqVxDNS5dNn-21" value="" style="endArrow=none;html=1;rounded=0;exitX=0;exitY=0.5;exitDx=0;exitDy=0;entryX=1;entryY=0.5;entryDx=0;entryDy=0;" parent="1" source="UmN1ryKaJYNSOMEjlBWB-104" target="xj5izY7rxrqVxDNS5dNn-20" edge="1">
          <mxGeometry relative="1" as="geometry">
            <mxPoint x="338" y="566" as="sourcePoint" />
            <mxPoint x="101" y="546" as="targetPoint" />
          </mxGeometry>
        </mxCell>
        <mxCell id="lsmUkswyZwA1g1vvTX2x-1" value="Rating_Score(1-5)" style="ellipse;whiteSpace=wrap;html=1;align=center;" parent="1" vertex="1">
          <mxGeometry x="1685" y="1692" width="130" height="40" as="geometry" />
        </mxCell>
        <mxCell id="lsmUkswyZwA1g1vvTX2x-2" value="Comment_Contents" style="ellipse;whiteSpace=wrap;html=1;align=center;" parent="1" vertex="1">
          <mxGeometry x="1561" y="1639" width="134" height="40" as="geometry" />
        </mxCell>
        <mxCell id="lsmUkswyZwA1g1vvTX2x-5" value="Medical_Record" style="shape=ext;margin=3;double=1;whiteSpace=wrap;html=1;align=center;" parent="1" vertex="1">
          <mxGeometry x="1495" y="263" width="100" height="40" as="geometry" />
        </mxCell>
        <mxCell id="lsmUkswyZwA1g1vvTX2x-6" value="Allergies" style="ellipse;shape=doubleEllipse;margin=3;whiteSpace=wrap;html=1;align=center;" parent="1" vertex="1">
          <mxGeometry x="1852" y="205" width="100" height="40" as="geometry" />
        </mxCell>
        <mxCell id="lsmUkswyZwA1g1vvTX2x-7" value="Lab_results" style="ellipse;shape=doubleEllipse;margin=3;whiteSpace=wrap;html=1;align=center;" parent="1" vertex="1">
          <mxGeometry x="1613" y="414" width="100" height="40" as="geometry" />
        </mxCell>
        <mxCell id="lsmUkswyZwA1g1vvTX2x-9" value="" style="endArrow=none;html=1;rounded=0;entryX=0.5;entryY=1;entryDx=0;entryDy=0;exitX=0.5;exitY=0;exitDx=0;exitDy=0;" parent="1" source="lsmUkswyZwA1g1vvTX2x-5" target="UmN1ryKaJYNSOMEjlBWB-161" edge="1">
          <mxGeometry relative="1" as="geometry">
            <mxPoint x="1420" y="263" as="sourcePoint" />
            <mxPoint x="1522" y="209" as="targetPoint" />
            <Array as="points" />
          </mxGeometry>
        </mxCell>
        <mxCell id="lsmUkswyZwA1g1vvTX2x-12" value="" style="endArrow=none;html=1;rounded=0;entryX=0;entryY=0.5;entryDx=0;entryDy=0;exitX=1;exitY=0.5;exitDx=0;exitDy=0;" parent="1" source="lsmUkswyZwA1g1vvTX2x-5" target="lsmUkswyZwA1g1vvTX2x-6" edge="1">
          <mxGeometry relative="1" as="geometry">
            <mxPoint x="1621" y="299" as="sourcePoint" />
            <mxPoint x="1688" y="201" as="targetPoint" />
            <Array as="points" />
          </mxGeometry>
        </mxCell>
        <mxCell id="lsmUkswyZwA1g1vvTX2x-13" value="" style="endArrow=none;html=1;rounded=0;entryX=0;entryY=0.5;entryDx=0;entryDy=0;exitX=1;exitY=0.5;exitDx=0;exitDy=0;" parent="1" source="lsmUkswyZwA1g1vvTX2x-5" target="UmN1ryKaJYNSOMEjlBWB-165" edge="1">
          <mxGeometry relative="1" as="geometry">
            <mxPoint x="1634" y="312" as="sourcePoint" />
            <mxPoint x="1701" y="214" as="targetPoint" />
            <Array as="points" />
          </mxGeometry>
        </mxCell>
        <mxCell id="lsmUkswyZwA1g1vvTX2x-14" value="" style="endArrow=none;html=1;rounded=0;entryX=0.5;entryY=0;entryDx=0;entryDy=0;exitX=1;exitY=0.5;exitDx=0;exitDy=0;" parent="1" source="lsmUkswyZwA1g1vvTX2x-5" target="lsmUkswyZwA1g1vvTX2x-79" edge="1">
          <mxGeometry relative="1" as="geometry">
            <mxPoint x="1647" y="325" as="sourcePoint" />
            <mxPoint x="1782.8367763378124" y="419.802944084453" as="targetPoint" />
            <Array as="points" />
          </mxGeometry>
        </mxCell>
        <mxCell id="lsmUkswyZwA1g1vvTX2x-15" value="" style="endArrow=none;html=1;rounded=0;entryX=0.25;entryY=1;entryDx=0;entryDy=0;exitX=0.5;exitY=0;exitDx=0;exitDy=0;" parent="1" source="lsmUkswyZwA1g1vvTX2x-7" target="lsmUkswyZwA1g1vvTX2x-5" edge="1">
          <mxGeometry relative="1" as="geometry">
            <mxPoint x="1660" y="338" as="sourcePoint" />
            <mxPoint x="1727" y="240" as="targetPoint" />
            <Array as="points" />
          </mxGeometry>
        </mxCell>
        <mxCell id="lsmUkswyZwA1g1vvTX2x-16" value="" style="endArrow=none;html=1;rounded=0;entryX=0.25;entryY=1;entryDx=0;entryDy=0;exitX=0.5;exitY=0;exitDx=0;exitDy=0;" parent="1" source="l3VvjnMhBTpfvbGfhZ33-118" target="lsmUkswyZwA1g1vvTX2x-5" edge="1">
          <mxGeometry relative="1" as="geometry">
            <mxPoint x="1673" y="351" as="sourcePoint" />
            <mxPoint x="1740" y="253" as="targetPoint" />
            <Array as="points" />
          </mxGeometry>
        </mxCell>
        <mxCell id="lsmUkswyZwA1g1vvTX2x-22" value="" style="endArrow=none;html=1;rounded=0;entryX=0;entryY=0.5;entryDx=0;entryDy=0;exitX=0.5;exitY=0;exitDx=0;exitDy=0;" parent="1" source="UmN1ryKaJYNSOMEjlBWB-14" target="lsmUkswyZwA1g1vvTX2x-34" edge="1">
          <mxGeometry relative="1" as="geometry">
            <mxPoint x="1211" y="493" as="sourcePoint" />
            <mxPoint x="1205.5" y="293" as="targetPoint" />
            <Array as="points" />
          </mxGeometry>
        </mxCell>
        <mxCell id="lsmUkswyZwA1g1vvTX2x-23" value="" style="shape=link;html=1;rounded=0;entryX=0;entryY=0.5;entryDx=0;entryDy=0;exitX=1;exitY=0.5;exitDx=0;exitDy=0;" parent="1" source="lsmUkswyZwA1g1vvTX2x-34" target="lsmUkswyZwA1g1vvTX2x-5" edge="1">
          <mxGeometry width="100" relative="1" as="geometry">
            <mxPoint x="1325.5" y="293" as="sourcePoint" />
            <mxPoint x="1465" y="572" as="targetPoint" />
          </mxGeometry>
        </mxCell>
        <mxCell id="lsmUkswyZwA1g1vvTX2x-29" value="" style="endArrow=none;html=1;rounded=0;exitX=0.5;exitY=1;exitDx=0;exitDy=0;entryX=0;entryY=0;entryDx=0;entryDy=0;" parent="1" source="l3VvjnMhBTpfvbGfhZ33-29" target="sDBs3e84eTA9IbxTBQSH-1" edge="1">
          <mxGeometry relative="1" as="geometry">
            <mxPoint x="1445" y="1065" as="sourcePoint" />
            <mxPoint x="1180" y="960" as="targetPoint" />
          </mxGeometry>
        </mxCell>
        <mxCell id="62xSQ3_A2AYxzG_R-7Ag-1" value="N" style="text;html=1;align=center;verticalAlign=middle;resizable=0;points=[];autosize=1;strokeColor=none;fillColor=none;" parent="1" vertex="1">
          <mxGeometry x="1301" y="273" width="39" height="26" as="geometry" />
        </mxCell>
        <mxCell id="62xSQ3_A2AYxzG_R-7Ag-4" value="M" style="text;html=1;align=center;verticalAlign=middle;resizable=0;points=[];autosize=1;strokeColor=none;fillColor=none;" parent="1" vertex="1">
          <mxGeometry x="976" y="1170" width="39" height="26" as="geometry" />
        </mxCell>
        <mxCell id="62xSQ3_A2AYxzG_R-7Ag-5" value="N" style="text;html=1;align=center;verticalAlign=middle;resizable=0;points=[];autosize=1;strokeColor=none;fillColor=none;" parent="1" vertex="1">
          <mxGeometry x="1132" y="1157" width="39" height="26" as="geometry" />
        </mxCell>
        <mxCell id="62xSQ3_A2AYxzG_R-7Ag-6" value="Price" style="ellipse;whiteSpace=wrap;html=1;align=center;" parent="1" vertex="1">
          <mxGeometry x="945.5" y="1357" width="100" height="40" as="geometry" />
        </mxCell>
        <mxCell id="yPfPSY170pNoVq_EUGfj-6" value="Administers" style="shape=rhombus;perimeter=rhombusPerimeter;whiteSpace=wrap;html=1;align=center;" parent="1" vertex="1">
          <mxGeometry x="1180" y="819" width="120" height="60" as="geometry" />
        </mxCell>
        <mxCell id="yPfPSY170pNoVq_EUGfj-7" value="" style="endArrow=none;html=1;rounded=0;entryX=0;entryY=0.5;entryDx=0;entryDy=0;exitX=1;exitY=0.5;exitDx=0;exitDy=0;" parent="1" source="l3VvjnMhBTpfvbGfhZ33-12" target="yPfPSY170pNoVq_EUGfj-6" edge="1">
          <mxGeometry relative="1" as="geometry">
            <mxPoint x="803" y="910" as="sourcePoint" />
            <mxPoint x="953" y="970" as="targetPoint" />
            <Array as="points" />
          </mxGeometry>
        </mxCell>
        <mxCell id="yPfPSY170pNoVq_EUGfj-8" value="" style="endArrow=none;html=1;rounded=0;entryX=0.5;entryY=1;entryDx=0;entryDy=0;exitX=0.5;exitY=0;exitDx=0;exitDy=0;" parent="1" source="fGyipN-ep7-rFaa1frUd-1" target="yPfPSY170pNoVq_EUGfj-6" edge="1">
          <mxGeometry relative="1" as="geometry">
            <mxPoint x="858" y="890" as="sourcePoint" />
            <mxPoint x="1160" y="878" as="targetPoint" />
            <Array as="points" />
          </mxGeometry>
        </mxCell>
        <mxCell id="yPfPSY170pNoVq_EUGfj-9" value="Treatment_ID" style="ellipse;whiteSpace=wrap;html=1;align=center;" parent="1" vertex="1">
          <mxGeometry x="1533" y="1123" width="100" height="40" as="geometry" />
        </mxCell>
        <mxCell id="yPfPSY170pNoVq_EUGfj-10" value="" style="endArrow=none;html=1;rounded=0;entryX=0.5;entryY=0;entryDx=0;entryDy=0;exitX=0.5;exitY=1;exitDx=0;exitDy=0;" parent="1" source="fGyipN-ep7-rFaa1frUd-1" target="yPfPSY170pNoVq_EUGfj-9" edge="1">
          <mxGeometry width="50" height="50" relative="1" as="geometry">
            <mxPoint x="1432" y="1112" as="sourcePoint" />
            <mxPoint x="1578" y="1215" as="targetPoint" />
          </mxGeometry>
        </mxCell>
        <mxCell id="62xSQ3_A2AYxzG_R-7Ag-10" value="1" style="text;html=1;align=center;verticalAlign=middle;resizable=0;points=[];autosize=1;strokeColor=none;fillColor=none;" parent="1" vertex="1">
          <mxGeometry x="1158" y="819" width="39" height="26" as="geometry" />
        </mxCell>
        <mxCell id="62xSQ3_A2AYxzG_R-7Ag-11" value="N" style="text;html=1;align=center;verticalAlign=middle;resizable=0;points=[];autosize=1;strokeColor=none;fillColor=none;" parent="1" vertex="1">
          <mxGeometry x="1249" y="871" width="39" height="26" as="geometry" />
        </mxCell>
        <mxCell id="yPfPSY170pNoVq_EUGfj-22" value="" style="verticalLabelPosition=bottom;verticalAlign=top;html=1;shape=mxgraph.basic.arc;startAngle=0.46710534412408955;endAngle=0.03898956518868466;direction=east;rotation=-30;" parent="1" vertex="1">
          <mxGeometry x="1985.5" y="1460.34" width="48" height="41" as="geometry" />
        </mxCell>
        <mxCell id="yPfPSY170pNoVq_EUGfj-25" value="" style="verticalLabelPosition=bottom;verticalAlign=top;html=1;shape=mxgraph.basic.arc;startAngle=0.46710534412408955;endAngle=0.1195886527596807;direction=east;rotation=-142;" parent="1" vertex="1">
          <mxGeometry x="2190.25" y="1429.9999999999998" width="48" height="47.64" as="geometry" />
        </mxCell>
        <mxCell id="yPfPSY170pNoVq_EUGfj-24" value="" style="verticalLabelPosition=bottom;verticalAlign=top;html=1;shape=mxgraph.basic.arc;startAngle=0.46710534412408955;endAngle=0.03898956518868466;direction=east;rotation=-60;" parent="1" vertex="1">
          <mxGeometry x="2088.37" y="1460.34" width="48" height="47.64" as="geometry" />
        </mxCell>
        <mxCell id="yPfPSY170pNoVq_EUGfj-29" value="" style="verticalLabelPosition=bottom;verticalAlign=top;html=1;shape=mxgraph.basic.arc;startAngle=0.47418525389056354;endAngle=0.03898956518868466;direction=east;rotation=-90;" parent="1" vertex="1">
          <mxGeometry x="106.99999999999999" y="784" width="49" height="41" as="geometry" />
        </mxCell>
        <mxCell id="yPfPSY170pNoVq_EUGfj-32" value="" style="verticalLabelPosition=bottom;verticalAlign=top;html=1;shape=mxgraph.basic.arc;startAngle=0.46710534412408955;endAngle=0.03898956518868466;direction=east;rotation=-150;" parent="1" vertex="1">
          <mxGeometry x="183.83" y="570.83" width="38" height="32.88" as="geometry" />
        </mxCell>
        <mxCell id="yPfPSY170pNoVq_EUGfj-33" value="" style="verticalLabelPosition=bottom;verticalAlign=top;html=1;shape=mxgraph.basic.arc;startAngle=0.46710534412408955;endAngle=0.03898956518868466;direction=east;rotation=-110;" parent="1" vertex="1">
          <mxGeometry x="61.03" y="577.37" width="32.86" height="22.92" as="geometry" />
        </mxCell>
        <mxCell id="yPfPSY170pNoVq_EUGfj-40" value="" style="verticalLabelPosition=bottom;verticalAlign=top;html=1;shape=mxgraph.basic.arc;startAngle=0.46710534412408955;endAngle=0.03898956518868466;direction=east;rotation=-110;" parent="1" vertex="1">
          <mxGeometry x="555.57" y="784" width="32.86" height="22.92" as="geometry" />
        </mxCell>
        <mxCell id="yPfPSY170pNoVq_EUGfj-44" value="" style="verticalLabelPosition=bottom;verticalAlign=top;html=1;shape=mxgraph.basic.arc;startAngle=0.46710534412408955;endAngle=0.03898956518868466;direction=east;rotation=-135;" parent="1" vertex="1">
          <mxGeometry x="622.64" y="573" width="32.86" height="22.92" as="geometry" />
        </mxCell>
        <mxCell id="yPfPSY170pNoVq_EUGfj-45" value="" style="verticalLabelPosition=bottom;verticalAlign=top;html=1;shape=mxgraph.basic.arc;startAngle=0.46710534412408955;endAngle=0.03898956518868466;direction=east;rotation=-30;" parent="1" vertex="1">
          <mxGeometry x="555.57" y="577.37" width="32.86" height="22.92" as="geometry" />
        </mxCell>
        <mxCell id="yPfPSY170pNoVq_EUGfj-49" value="" style="verticalLabelPosition=bottom;verticalAlign=top;html=1;shape=mxgraph.basic.arc;startAngle=0.46710534412408955;endAngle=0.03898956518868466;direction=east;rotation=0;" parent="1" vertex="1">
          <mxGeometry x="475.00000000000006" y="541.54" width="32.86" height="22.92" as="geometry" />
        </mxCell>
        <mxCell id="yPfPSY170pNoVq_EUGfj-50" value="" style="verticalLabelPosition=bottom;verticalAlign=top;html=1;shape=mxgraph.basic.arc;startAngle=0.46710534412408955;endAngle=0.03898956518868466;direction=east;rotation=-30;" parent="1" vertex="1">
          <mxGeometry x="832.8000000000001" y="421.54" width="39.2" height="32.46" as="geometry" />
        </mxCell>
        <mxCell id="yPfPSY170pNoVq_EUGfj-51" value="" style="verticalLabelPosition=bottom;verticalAlign=top;html=1;shape=mxgraph.basic.arc;startAngle=0.46710534412408955;endAngle=0.03898956518868466;direction=east;rotation=-148;" parent="1" vertex="1">
          <mxGeometry x="1035.4" y="421.54" width="39.2" height="32.46" as="geometry" />
        </mxCell>
        <mxCell id="yPfPSY170pNoVq_EUGfj-53" value="Age" style="ellipse;whiteSpace=wrap;html=1;align=center;dashed=1;" parent="1" vertex="1">
          <mxGeometry x="745" y="374" width="100" height="40" as="geometry" />
        </mxCell>
        <mxCell id="yPfPSY170pNoVq_EUGfj-55" value="" style="endArrow=none;html=1;rounded=0;entryX=0.5;entryY=0;entryDx=0;entryDy=0;exitX=0.5;exitY=1;exitDx=0;exitDy=0;" parent="1" source="yPfPSY170pNoVq_EUGfj-53" target="UmN1ryKaJYNSOMEjlBWB-13" edge="1">
          <mxGeometry relative="1" as="geometry">
            <mxPoint x="595" y="336" as="sourcePoint" />
            <mxPoint x="730" y="497" as="targetPoint" />
          </mxGeometry>
        </mxCell>
        <mxCell id="sDBs3e84eTA9IbxTBQSH-1" value="Appointment" style="shape=rhombus;perimeter=rhombusPerimeter;whiteSpace=wrap;html=1;align=center;" parent="1" vertex="1">
          <mxGeometry x="895" y="510" width="120" height="60" as="geometry" />
        </mxCell>
        <mxCell id="sDBs3e84eTA9IbxTBQSH-2" style="edgeStyle=orthogonalEdgeStyle;rounded=0;orthogonalLoop=1;jettySize=auto;html=1;exitX=0.5;exitY=1;exitDx=0;exitDy=0;" parent="1" edge="1">
          <mxGeometry relative="1" as="geometry">
            <mxPoint x="1130" y="1088.9999999999998" as="sourcePoint" />
            <mxPoint x="1130" y="1088.9999999999998" as="targetPoint" />
          </mxGeometry>
        </mxCell>
        <mxCell id="sDBs3e84eTA9IbxTBQSH-4" value="" style="endArrow=none;html=1;rounded=0;exitX=0;exitY=1;exitDx=0;exitDy=0;entryX=1;entryY=0;entryDx=0;entryDy=0;" parent="1" source="l3VvjnMhBTpfvbGfhZ33-37" target="sDBs3e84eTA9IbxTBQSH-1" edge="1">
          <mxGeometry relative="1" as="geometry">
            <mxPoint x="998" y="568" as="sourcePoint" />
            <mxPoint x="1018" y="613" as="targetPoint" />
          </mxGeometry>
        </mxCell>
        <mxCell id="sDBs3e84eTA9IbxTBQSH-6" value="" style="shape=link;html=1;rounded=0;exitX=1;exitY=0.5;exitDx=0;exitDy=0;entryX=0;entryY=0.75;entryDx=0;entryDy=0;" parent="1" source="sDBs3e84eTA9IbxTBQSH-1" target="UmN1ryKaJYNSOMEjlBWB-14" edge="1">
          <mxGeometry width="100" relative="1" as="geometry">
            <mxPoint x="1131" y="793" as="sourcePoint" />
            <mxPoint x="1231" y="793" as="targetPoint" />
          </mxGeometry>
        </mxCell>
        <mxCell id="sDBs3e84eTA9IbxTBQSH-7" value="" style="endArrow=none;html=1;rounded=0;exitX=1;exitY=0.5;exitDx=0;exitDy=0;entryX=0;entryY=0.5;entryDx=0;entryDy=0;" parent="1" source="UmN1ryKaJYNSOMEjlBWB-13" target="sDBs3e84eTA9IbxTBQSH-1" edge="1">
          <mxGeometry width="50" height="50" relative="1" as="geometry">
            <mxPoint x="1157" y="817" as="sourcePoint" />
            <mxPoint x="1207" y="767" as="targetPoint" />
          </mxGeometry>
        </mxCell>
        <mxCell id="sDBs3e84eTA9IbxTBQSH-8" value="M" style="text;html=1;align=center;verticalAlign=middle;resizable=0;points=[];autosize=1;strokeColor=none;fillColor=none;" parent="1" vertex="1">
          <mxGeometry x="1015" y="533" width="39" height="26" as="geometry" />
        </mxCell>
        <mxCell id="sDBs3e84eTA9IbxTBQSH-9" value="N" style="text;html=1;align=center;verticalAlign=middle;resizable=0;points=[];autosize=1;strokeColor=none;fillColor=none;" parent="1" vertex="1">
          <mxGeometry x="859" y="533" width="39" height="26" as="geometry" />
        </mxCell>
        <mxCell id="uONnu4WFTlmhi51apTAZ-1" value="" style="shape=link;html=1;rounded=0;entryX=0.5;entryY=1;entryDx=0;entryDy=0;exitX=0.5;exitY=0;exitDx=0;exitDy=0;" parent="1" source="umu3U105oiYe72CDvPgY-156" target="umu3U105oiYe72CDvPgY-155" edge="1">
          <mxGeometry width="100" relative="1" as="geometry">
            <mxPoint x="1638" y="1391" as="sourcePoint" />
            <mxPoint x="1738" y="1391" as="targetPoint" />
          </mxGeometry>
        </mxCell>
        <mxCell id="qRnIFf2FwN7FLmeCjPiC-2" value="Contact_Information" style="ellipse;whiteSpace=wrap;html=1;align=center;" parent="1" vertex="1">
          <mxGeometry x="351" y="312" width="137.43" height="62" as="geometry" />
        </mxCell>
        <mxCell id="qRnIFf2FwN7FLmeCjPiC-4" value="Has" style="shape=rhombus;double=1;perimeter=rhombusPerimeter;whiteSpace=wrap;html=1;align=center;" parent="1" vertex="1">
          <mxGeometry x="970" y="1400.34" width="120" height="60" as="geometry" />
        </mxCell>
        <mxCell id="fi-NZxp8UJqheyXNBSNo-1" value="" style="shape=link;html=1;rounded=0;exitX=1;exitY=0.5;exitDx=0;exitDy=0;entryX=0;entryY=0.5;entryDx=0;entryDy=0;" parent="1" source="VUkm5OOeQnTbvhqiQd82-37" target="qRnIFf2FwN7FLmeCjPiC-4" edge="1">
          <mxGeometry width="100" relative="1" as="geometry">
            <mxPoint x="949" y="1417" as="sourcePoint" />
            <mxPoint x="1049" y="1417" as="targetPoint" />
          </mxGeometry>
        </mxCell>
        <mxCell id="fi-NZxp8UJqheyXNBSNo-2" value="" style="shape=link;html=1;rounded=0;exitX=1;exitY=0.5;exitDx=0;exitDy=0;entryX=0;entryY=0.5;entryDx=0;entryDy=0;" parent="1" source="VUkm5OOeQnTbvhqiQd82-16" target="VUkm5OOeQnTbvhqiQd82-7" edge="1">
          <mxGeometry width="100" relative="1" as="geometry">
            <mxPoint x="1479" y="1368.25" as="sourcePoint" />
            <mxPoint x="1591" y="1364.25" as="targetPoint" />
          </mxGeometry>
        </mxCell>
      </root>
    </mxGraphModel>
  </diagram>
</mxfile>
